<?xml version="1.0" standalone="no"?>
<!DOCTYPE svg PUBLIC "-//W3C//DTD SVG 20010904//EN"
 "http://www.w3.org/TR/2001/REC-SVG-20010904/DTD/svg10.dtd">
<svg version="1.0" xmlns="http://www.w3.org/2000/svg"
 width="1024.000000pt" height="1024.000000pt" viewBox="0 0 1024.000000 1024.000000"
 preserveAspectRatio="xMidYMid meet">

<g transform="translate(0.000000,1024.000000) scale(0.100000,-0.100000)"
fill="#000000" stroke="none">
<path d="M6525 8884 c-333 -71 -610 -200 -757 -351 -81 -82 -104 -116 -154
-219 -84 -174 -108 -323 -101 -617 5 -203 10 -251 30 -244 6 2 30 53 53 113
102 270 217 447 410 634 90 88 203 180 220 180 3 0 -24 -32 -60 -70 -40 -42
-64 -76 -60 -83 4 -7 4 -9 -1 -5 -4 4 -14 3 -22 -3 -15 -13 -18 -33 -4 -24 5
3 12 1 16 -4 3 -6 -3 -8 -15 -6 -45 9 -264 -329 -354 -548 -51 -122 -51 -122
37 -91 117 42 311 138 415 207 115 75 225 174 218 194 -3 8 -2 12 3 9 23 -15
138 165 190 299 45 115 82 270 111 468 28 194 29 187 -22 186 -24 0 -92 -11
-153 -25z"/>
<path d="M3838 8349 c-18 -10 -25 -59 -9 -59 5 0 18 -3 28 -6 13 -4 15 -3 4 4
-10 7 -8 13 10 26 19 13 20 16 6 16 -9 0 -17 -5 -17 -11 0 -5 -5 -7 -12 -3 -7
4 -8 3 -4 -4 4 -7 2 -12 -3 -12 -6 0 -11 9 -11 21 0 11 5 17 10 14 6 -3 10 -2
10 4 0 7 50 12 133 14 l132 3 -130 2 c-74 1 -138 -3 -147 -9z"/>
<path d="M4170 8347 c0 -4 20 -7 45 -6 24 2 43 5 40 7 -8 8 -85 7 -85 -1z"/>
<path d="M4275 8350 c4 -6 16 -8 26 -5 14 5 19 3 17 -7 -4 -17 39 -61 47 -48
4 6 1 10 -4 10 -6 0 -10 6 -8 13 1 6 -6 11 -15 9 -13 -2 -16 2 -11 13 5 15 22
16 132 12 227 -9 316 -20 305 -38 -3 -5 0 -9 5 -9 6 0 11 4 11 9 0 4 12 6 28
3 15 -2 24 -2 21 1 -3 4 -41 14 -85 23 -98 19 -480 31 -469 14z"/>
<path d="M4128 8343 c6 -2 18 -2 25 0 6 3 1 5 -13 5 -14 0 -19 -2 -12 -5z"/>
<path d="M4060 8330 c-9 -6 -10 -10 -3 -10 6 0 15 5 18 10 8 12 4 12 -15 0z"/>
<path d="M4534 8315 c-18 -13 -18 -14 4 -8 12 3 25 9 28 14 8 14 -10 11 -32
-6z"/>
<path d="M4166 8303 c-6 -14 -5 -15 5 -6 7 7 10 15 7 18 -3 3 -9 -2 -12 -12z"/>
<path d="M4215 8310 c-3 -6 1 -7 9 -4 18 7 21 14 7 14 -6 0 -13 -4 -16 -10z"/>
<path d="M4435 8311 c-6 -11 13 -26 22 -17 4 3 1 6 -6 6 -7 0 -9 5 -6 10 3 6
4 10 1 10 -3 0 -7 -4 -11 -9z"/>
<path d="M3995 8300 c3 -5 8 -10 11 -10 2 0 4 5 4 10 0 6 -5 10 -11 10 -5 0
-7 -4 -4 -10z"/>
<path d="M4235 8290 c-10 -11 -14 -20 -9 -20 5 0 15 9 22 20 7 11 11 20 9 20
-2 0 -12 -9 -22 -20z"/>
<path d="M4908 8279 c88 -35 185 -96 177 -109 -3 -6 3 -10 15 -10 12 0 18 -4
15 -10 -3 -5 0 -10 7 -10 10 0 10 -2 -1 -9 -9 -6 -10 -11 -2 -15 6 -4 11 -2
11 5 0 7 9 3 20 -9 11 -12 20 -26 20 -32 0 -5 3 -10 8 -10 16 0 34 -42 23 -53
-6 -6 -11 -15 -11 -21 0 -5 6 -2 13 9 13 17 14 17 20 -6 3 -13 9 -20 13 -16 9
9 -49 103 -94 154 -57 62 -115 102 -203 139 -44 19 -86 34 -92 33 -7 0 21 -13
61 -30z"/>
<path d="M4095 8290 c-3 -5 -12 -7 -20 -3 -8 3 -15 3 -15 0 0 -13 30 -14 40
-1 7 8 10 14 7 14 -3 0 -8 -4 -12 -10z"/>
<path d="M4266 8285 c-9 -26 -7 -32 5 -12 6 10 9 21 6 23 -2 3 -7 -2 -11 -11z"/>
<path d="M4130 8281 c0 -5 5 -13 10 -16 6 -3 10 -2 10 4 0 5 -4 13 -10 16 -5
3 -10 2 -10 -4z"/>
<path d="M4406 8278 c3 -5 10 -6 15 -3 13 9 11 12 -6 12 -8 0 -12 -4 -9 -9z"/>
<path d="M4500 8281 c0 -6 4 -13 10 -16 6 -3 7 1 4 9 -7 18 -14 21 -14 7z"/>
<path d="M4620 8279 c0 -5 5 -7 10 -4 6 3 10 8 10 11 0 2 -4 4 -10 4 -5 0 -10
-5 -10 -11z"/>
<path d="M4647 8275 c-4 -8 -13 -15 -22 -15 -8 0 -15 -5 -15 -10 0 -7 6 -7 19
0 22 11 36 29 28 36 -2 3 -7 -2 -10 -11z"/>
<path d="M4678 8283 c6 -2 18 -2 25 0 6 3 1 5 -13 5 -14 0 -19 -2 -12 -5z"/>
<path d="M3896 8258 c12 -13 25 -30 30 -38 5 -8 11 -184 14 -390 6 -420 -1
-375 93 -600 20 -46 44 -127 53 -180 15 -78 19 -90 25 -65 4 17 7 44 7 60 -1
29 -1 28 -7 -5 -7 -34 -7 -34 -16 20 -4 30 -9 62 -10 70 -1 8 -10 33 -20 55
-10 22 -18 50 -19 62 0 11 -5 19 -10 16 -4 -3 -5 5 -1 18 4 15 3 19 -3 11 -6
-9 -12 -6 -20 13 -16 35 -15 48 4 41 9 -3 12 -2 9 5 -4 6 -13 8 -20 5 -14 -5
-32 30 -21 41 3 4 2 11 -4 18 -5 6 -12 29 -16 51 -18 118 -19 110 2 94 18 -14
18 -14 2 6 -15 17 -18 40 -18 122 0 75 3 102 13 102 8 0 7 3 -3 10 -16 10 -15
12 14 27 12 7 15 13 7 17 -6 4 -11 2 -11 -3 0 -6 -4 -11 -10 -11 -16 0 -13
287 3 293 10 4 10 6 0 6 -8 1 -13 14 -13 32 0 24 4 30 16 25 9 -3 12 -2 9 5
-4 5 -12 8 -18 6 -6 -2 -20 13 -30 34 -10 21 -26 40 -35 44 -13 5 -12 1 4 -17z"/>
<path d="M4550 8276 c0 -2 7 -7 16 -10 8 -3 12 -2 9 4 -6 10 -25 14 -25 6z"/>
<path d="M3944 8251 c0 -11 3 -18 7 -15 4 2 9 -2 12 -8 2 -7 7 -11 10 -8 3 3
-2 16 -12 28 -16 21 -17 22 -17 3z"/>
<path d="M4385 8259 c-4 -6 -17 -14 -29 -19 -14 -6 9 -9 71 -9 112 -1 212 -21
297 -60 42 -19 63 -24 59 -15 -3 7 -8 13 -11 12 -4 -1 -24 6 -44 15 -21 10
-42 17 -48 17 -6 0 -8 5 -4 12 4 6 3 9 -2 6 -5 -3 -40 0 -79 8 -38 7 -104 14
-145 14 -45 1 -67 4 -56 9 13 5 16 10 9 14 -7 4 -15 2 -18 -4z"/>
<path d="M4318 8253 c7 -3 16 -2 19 1 4 3 -2 6 -13 5 -11 0 -14 -3 -6 -6z"/>
<path d="M4870 8256 c0 -2 9 -6 20 -9 11 -3 18 -1 14 4 -5 9 -34 13 -34 5z"/>
<path d="M4113 8234 c9 -12 15 -28 12 -37 -4 -8 -3 -17 2 -20 19 -12 9 43 -11
60 -21 18 -21 18 -3 -3z"/>
<path d="M4145 8241 c-3 -5 -2 -12 3 -15 5 -3 9 1 9 9 0 17 -3 19 -12 6z"/>
<path d="M4238 8243 c7 -3 16 -2 19 1 4 3 -2 6 -13 5 -11 0 -14 -3 -6 -6z"/>
<path d="M4695 8239 c-4 -6 -4 -13 -1 -16 9 -9 36 5 35 19 0 10 -2 10 -6 1 -2
-7 -9 -13 -14 -13 -6 0 -7 5 -4 10 3 6 4 10 1 10 -3 0 -8 -5 -11 -11z"/>
<path d="M4740 8241 c0 -6 4 -13 10 -16 6 -3 7 1 4 9 -7 18 -14 21 -14 7z"/>
<path d="M4075 8231 c-3 -5 -2 -12 3 -15 5 -3 9 1 9 9 0 17 -3 19 -12 6z"/>
<path d="M4309 8235 c-3 -2 -19 -5 -36 -7 -24 -2 -29 -6 -25 -22 4 -14 2 -17
-9 -11 -11 7 -11 5 1 -10 8 -10 10 -16 3 -12 -6 4 -14 3 -18 -3 -3 -5 1 -10 9
-10 12 0 15 -14 15 -74 0 -61 -3 -74 -15 -69 -8 3 -14 13 -15 22 0 10 -2 11
-6 3 -2 -6 -9 -10 -14 -6 -5 3 -9 3 -9 0 0 -3 13 -12 30 -21 28 -14 29 -19 33
-88 1 -39 4 10 5 111 l2 182 28 1 c15 1 31 1 35 0 5 -1 6 3 2 9 -7 11 -10 12
-16 5z"/>
<path d="M4790 8224 c-17 -10 -18 -13 -5 -8 11 3 25 7 32 7 7 0 10 4 7 9 -6
10 -4 10 -34 -8z"/>
<path d="M4934 8223 c3 -6 -1 -13 -11 -16 -17 -4 -17 -5 0 -6 11 -1 15 -6 11
-13 -4 -6 -3 -8 4 -5 12 8 10 32 -3 44 -4 4 -5 3 -1 -4z"/>
<path d="M4008 8197 c3 -10 8 -14 11 -9 3 5 15 12 26 14 15 3 12 5 -11 9 -27
4 -30 2 -26 -14z"/>
<path d="M4162 8208 c-15 -15 -15 -28 -1 -28 5 0 7 5 3 12 -5 7 -2 9 9 5 11
-4 14 -2 10 9 -6 17 -6 17 -21 2z"/>
<path d="M4835 8209 c-4 -6 -5 -12 -2 -15 2 -3 7 2 10 11 7 17 1 20 -8 4z"/>
<path d="M4085 8200 c-11 -5 -15 -9 -8 -9 6 -1 16 -13 21 -28 9 -27 9 -27 9
10 -1 20 -1 37 -1 36 -1 0 -10 -4 -21 -9z"/>
<path d="M4804 8153 c-2 -17 12 -38 46 -69 26 -24 61 -70 78 -101 17 -32 32
-50 32 -41 0 9 -5 20 -10 23 -6 4 -9 27 -6 53 4 41 3 43 -6 19 l-10 -28 -24
32 c-22 30 -22 34 -8 50 14 16 14 17 -3 14 -10 -1 -17 -8 -15 -14 3 -15 -7
-14 -24 4 -14 14 -11 19 9 16 4 0 7 4 7 9 0 6 -10 8 -24 4 -28 -7 -41 8 -27
34 7 13 7 19 -2 19 -7 0 -13 -11 -13 -24z"/>
<path d="M4858 8166 c-17 -13 -14 -26 5 -26 6 0 7 3 4 7 -4 3 -2 12 4 20 14
16 9 16 -13 -1z"/>
<path d="M4960 8171 c0 -6 4 -13 10 -16 6 -3 7 1 4 9 -7 18 -14 21 -14 7z"/>
<path d="M5010 8171 c0 -7 -5 -9 -12 -5 -7 5 -8 3 -3 -5 5 -9 10 -10 18 -2 6
6 8 14 4 18 -4 3 -7 1 -7 -6z"/>
<path d="M4145 8160 c-4 -6 -11 -7 -17 -4 -5 4 -2 -5 7 -20 17 -26 45 -35 45
-15 0 6 -7 9 -15 5 -12 -4 -14 0 -11 19 5 26 1 32 -9 15z"/>
<path d="M4175 8160 c-3 -5 -1 -10 4 -10 6 0 11 5 11 10 0 6 -2 10 -4 10 -3 0
-8 -4 -11 -10z"/>
<path d="M5043 8155 c0 -7 6 -11 14 -8 7 3 13 6 13 8 0 2 -6 5 -13 8 -8 3 -14
-1 -14 -8z"/>
<path d="M4018 8148 c5 -5 16 -8 23 -6 8 3 3 7 -10 11 -17 4 -21 3 -13 -5z"/>
<path d="M4068 8153 c6 -2 9 -10 6 -15 -4 -7 -2 -8 5 -4 13 9 5 26 -12 25 -9
0 -8 -2 1 -6z"/>
<path d="M4911 8147 c-1 -11 -6 -15 -13 -11 -7 5 -8 3 -3 -5 10 -16 29 2 22
21 -4 8 -6 7 -6 -5z"/>
<path d="M4076 8115 c-11 -8 -15 -15 -9 -15 6 0 16 7 23 15 16 19 11 19 -14 0z"/>
<path d="M4106 8109 c-11 -11 -16 -22 -13 -26 4 -3 7 -1 7 6 0 8 8 11 20 8 21
-5 25 0 12 19 -5 8 -13 5 -26 -7z"/>
<path d="M5010 8126 c0 -2 8 -10 18 -17 15 -13 16 -12 3 4 -13 16 -21 21 -21
13z"/>
<path d="M5051 8114 c0 -11 3 -14 6 -6 3 7 2 16 -1 19 -3 4 -6 -2 -5 -13z"/>
<path d="M5070 8120 c0 -5 5 -10 11 -10 5 0 7 5 4 10 -3 6 -8 10 -11 10 -2 0
-4 -4 -4 -10z"/>
<path d="M3988 8103 c7 -3 16 -2 19 1 4 3 -2 6 -13 5 -11 0 -14 -3 -6 -6z"/>
<path d="M4211 8094 c0 -11 3 -14 6 -6 3 7 2 16 -1 19 -3 4 -6 -2 -5 -13z"/>
<path d="M4034 8076 c0 -12 5 -23 12 -23 6 0 9 9 6 19 -7 27 -18 30 -18 4z"/>
<path d="M4150 8085 c0 -8 4 -15 8 -15 5 0 9 7 9 15 0 8 -4 15 -9 15 -4 0 -8
-7 -8 -15z"/>
<path d="M4969 8091 c8 -5 16 -17 17 -26 1 -9 6 -20 10 -23 4 -4 4 1 1 11 -7
18 8 24 18 7 3 -5 14 -10 23 -9 14 0 14 2 2 6 -8 3 -27 14 -42 24 -14 11 -30
19 -35 19 -4 0 -2 -4 6 -9z"/>
<path d="M5128 8093 c10 -4 10 -8 0 -21 -12 -15 -11 -16 4 -3 19 14 15 32 -5
30 -8 0 -8 -2 1 -6z"/>
<path d="M4180 8081 c0 -6 4 -13 10 -16 6 -3 7 1 4 9 -7 18 -14 21 -14 7z"/>
<path d="M5030 8076 c7 -7 13 -7 20 0 6 6 3 10 -10 10 -13 0 -16 -4 -10 -10z"/>
<path d="M3994 8058 c-4 -7 -3 -8 4 -4 16 10 15 -17 0 -33 -11 -11 -9 -11 9 0
17 10 19 17 12 31 -11 21 -15 22 -25 6z"/>
<path d="M5139 8043 c-13 -16 -12 -17 4 -4 16 13 21 21 13 21 -2 0 -10 -8 -17
-17z"/>
<path d="M4105 8040 c-3 -5 -1 -10 4 -10 6 0 11 5 11 10 0 6 -2 10 -4 10 -3 0
-8 -4 -11 -10z"/>
<path d="M4158 8043 c7 -3 16 -2 19 1 4 3 -2 6 -13 5 -11 0 -14 -3 -6 -6z"/>
<path d="M4040 8029 c0 -5 5 -7 10 -4 6 3 10 8 10 11 0 2 -4 4 -10 4 -5 0 -10
-5 -10 -11z"/>
<path d="M5013 8021 c0 -11 5 -18 9 -15 4 3 5 11 1 19 -7 21 -12 19 -10 -4z"/>
<path d="M4075 8020 c3 -5 8 -10 11 -10 2 0 4 5 4 10 0 6 -5 10 -11 10 -5 0
-7 -4 -4 -10z"/>
<path d="M4106 8011 c-4 -6 -3 -11 2 -11 6 0 9 -8 8 -17 -1 -13 5 -17 23 -15
17 2 22 -2 17 -13 -3 -9 -2 -13 4 -10 6 3 10 -1 10 -9 0 -20 17 -29 26 -15 4
7 3 9 -3 6 -14 -9 -25 34 -13 48 6 7 1 11 -15 11 -14 0 -25 -4 -25 -8 0 -4 -5
-8 -11 -8 -6 0 -9 6 -6 13 7 19 -8 43 -17 28z"/>
<path d="M4985 8011 c-3 -5 -2 -12 3 -15 5 -3 9 1 9 9 0 17 -3 19 -12 6z"/>
<path d="M4045 7989 c-4 -6 -5 -12 -2 -15 2 -3 7 2 10 11 7 17 1 20 -8 4z"/>
<path d="M5083 7983 c-3 -10 -8 -21 -10 -25 -2 -4 2 -5 9 -3 8 3 14 14 14 25
0 25 -5 25 -13 3z"/>
<path d="M4010 7981 c0 -6 4 -13 10 -16 6 -3 7 1 4 9 -7 18 -14 21 -14 7z"/>
<path d="M4085 7980 c3 -5 8 -10 11 -10 2 0 4 5 4 10 0 6 -5 10 -11 10 -5 0
-7 -4 -4 -10z"/>
<path d="M5185 7963 c1 -11 9 -17 20 -15 10 2 22 -2 26 -10 7 -11 9 -11 9 0 0
8 -9 16 -20 19 -11 3 -20 9 -20 14 0 5 -4 9 -9 9 -5 0 -8 -8 -6 -17z"/>
<path d="M5033 7951 c-9 -14 -7 -17 16 -18 17 0 19 1 7 4 -14 4 -15 7 -6 13 7
4 8 10 3 13 -5 3 -14 -2 -20 -12z"/>
<path d="M5130 7955 c0 -7 30 -13 34 -7 3 4 -4 9 -15 9 -10 1 -19 0 -19 -2z"/>
<path d="M3961 7934 c0 -11 3 -14 6 -6 3 7 2 16 -1 19 -3 4 -6 -2 -5 -13z"/>
<path d="M4020 7928 c-10 -21 -10 -22 4 -5 13 17 15 17 24 2 8 -16 10 -16 16
1 4 10 4 15 0 11 -4 -4 -13 -2 -20 4 -9 8 -15 4 -24 -13z"/>
<path d="M5110 7939 c0 -5 -4 -8 -8 -5 -4 2 -14 -4 -20 -15 -12 -19 -12 -19
13 -3 22 14 34 34 20 34 -3 0 -5 -5 -5 -11z"/>
<path d="M5251 7945 c0 -5 6 -30 13 -55 8 -25 15 -36 15 -25 -1 21 -27 98 -28
80z"/>
<path d="M4096 7914 c-4 -9 -4 -19 -1 -22 3 -3 5 0 5 6 0 6 8 9 18 6 10 -4 13
-2 7 3 -5 4 -13 12 -16 16 -4 4 -9 0 -13 -9z"/>
<path d="M4215 7920 c-3 -5 -1 -10 4 -10 6 0 11 5 11 10 0 6 -2 10 -4 10 -3 0
-8 -4 -11 -10z"/>
<path d="M5200 7915 c6 -8 8 -20 4 -27 -5 -10 -4 -10 5 -2 13 12 5 44 -11 44
-6 0 -5 -6 2 -15z"/>
<path d="M4966 7900 c16 -58 24 -97 24 -127 0 -18 5 -33 11 -33 6 0 8 8 6 18
-3 9 -9 40 -13 67 -4 28 -8 52 -9 55 0 3 -6 14 -13 25 -12 19 -12 18 -6 -5z"/>
<path d="M3963 7892 c0 -12 3 -19 6 -17 2 3 14 -3 25 -12 16 -13 14 -10 -4 12
-14 17 -26 32 -27 34 -1 2 -1 -6 0 -17z"/>
<path d="M4140 7897 c0 -10 8 -17 18 -17 9 0 13 4 7 8 -5 4 -13 11 -17 16 -5
5 -8 2 -8 -7z"/>
<path d="M5125 7900 c3 -5 8 -10 11 -10 2 0 4 5 4 10 0 6 -5 10 -11 10 -5 0
-7 -4 -4 -10z"/>
<path d="M5155 7900 c-3 -5 -1 -10 4 -10 6 0 11 5 11 10 0 6 -2 10 -4 10 -3 0
-8 -4 -11 -10z"/>
<path d="M5116 7872 c-3 -5 0 -9 7 -10 7 0 23 -3 37 -6 14 -4 18 -3 10 0 -8 4
-23 11 -32 15 -9 5 -19 5 -22 1z"/>
<path d="M5228 7873 c7 -3 16 -2 19 1 4 3 -2 6 -13 5 -11 0 -14 -3 -6 -6z"/>
<path d="M5045 7860 c-3 -5 -1 -10 4 -10 6 0 11 5 11 10 0 6 -2 10 -4 10 -3 0
-8 -4 -11 -10z"/>
<path d="M5085 7860 c3 -5 8 -10 11 -10 2 0 4 5 4 10 0 6 -5 10 -11 10 -5 0
-7 -4 -4 -10z"/>
<path d="M4061 7843 c0 -10 3 -13 5 -6 3 7 12 9 21 6 11 -4 14 -2 9 5 -11 18
-36 14 -35 -5z"/>
<path d="M5195 7850 c-3 -6 1 -7 9 -4 18 7 21 14 7 14 -6 0 -13 -4 -16 -10z"/>
<path d="M4030 7841 c0 -6 4 -13 10 -16 6 -3 7 1 4 9 -7 18 -14 21 -14 7z"/>
<path d="M4166 7838 c3 -5 10 -6 15 -3 13 9 11 12 -6 12 -8 0 -12 -4 -9 -9z"/>
<path d="M4203 7828 c-2 -16 0 -19 6 -9 5 7 15 17 22 22 11 7 9 9 -6 9 -14 0
-21 -7 -22 -22z"/>
<path d="M4252 7782 c-1 -55 -5 -71 -14 -66 -10 6 -10 4 0 -7 8 -9 12 -51 12
-132 0 -123 -14 -207 -34 -203 -6 2 -8 1 -3 -1 13 -8 7 -26 -36 -114 -24 -49
-47 -85 -55 -83 -7 1 -8 0 -3 -2 6 -3 8 -26 6 -52 l-4 -47 9 42 c5 23 31 87
59 142 27 56 55 125 61 154 6 31 9 133 7 247 -1 107 -3 162 -5 122z"/>
<path d="M5255 7830 c-3 -6 1 -7 9 -4 26 10 18 -13 -11 -36 l-28 -22 29 17 29
17 -6 -101 c-3 -57 -11 -108 -17 -116 -7 -8 -10 -15 -7 -15 8 0 -26 -97 -47
-139 -9 -17 -21 -29 -26 -26 -6 4 -7 -1 -3 -11 5 -13 3 -15 -7 -9 -8 5 -11 4
-6 -3 3 -6 2 -13 -2 -16 -5 -3 -14 6 -20 19 -7 14 -16 25 -22 25 -7 0 -4 -7 4
-16 9 -8 14 -19 11 -24 -3 -5 0 -10 7 -12 8 -3 -10 -27 -42 -58 -34 -33 -42
-45 -23 -31 43 29 115 116 143 171 47 93 61 152 67 278 5 107 4 122 -10 122
-9 0 -19 -4 -22 -10z"/>
<path d="M4000 7820 c0 -6 5 -8 12 -4 8 5 9 2 5 -9 -3 -10 -2 -17 4 -17 14 0
7 32 -8 38 -7 2 -13 -1 -13 -8z"/>
<path d="M4090 7810 c6 -11 13 -20 16 -20 2 0 0 9 -6 20 -6 11 -13 20 -16 20
-2 0 0 -9 6 -20z"/>
<path d="M5181 7814 c0 -11 3 -14 6 -6 3 7 2 16 -1 19 -3 4 -6 -2 -5 -13z"/>
<path d="M5208 7823 c7 -3 16 -2 19 1 4 3 -2 6 -13 5 -11 0 -14 -3 -6 -6z"/>
<path d="M4157 7798 c-3 -12 -3 -28 1 -35 5 -8 8 0 9 22 1 40 -2 44 -10 13z"/>
<path d="M5080 7815 c0 -5 5 -17 10 -25 5 -8 10 -10 10 -5 0 6 -5 17 -10 25
-5 8 -10 11 -10 5z"/>
<path d="M5100 7816 c0 -2 7 -7 16 -10 8 -3 12 -2 9 4 -6 10 -25 14 -25 6z"/>
<path d="M4180 7790 c0 -5 5 -10 11 -10 5 0 7 5 4 10 -3 6 -8 10 -11 10 -2 0
-4 -4 -4 -10z"/>
<path d="M4120 7781 c0 -6 4 -12 8 -15 5 -3 9 1 9 9 0 8 -4 15 -9 15 -4 0 -8
-4 -8 -9z"/>
<path d="M5066 7775 c-3 -9 -2 -13 4 -10 6 3 10 -1 10 -9 0 -9 5 -16 10 -16 7
0 7 8 -1 23 -16 30 -16 30 -23 12z"/>
<path d="M5180 7780 c0 -5 5 -10 10 -10 6 0 10 5 10 10 0 6 -4 10 -10 10 -5 0
-10 -4 -10 -10z"/>
<path d="M4085 7770 c-4 -6 -1 -9 7 -8 7 2 12 -3 11 -9 -2 -7 2 -13 7 -13 14
0 12 16 -4 29 -10 8 -16 9 -21 1z"/>
<path d="M4187 7753 c3 -7 -1 -13 -8 -13 -7 0 -3 -7 9 -16 13 -9 26 -13 29
-10 4 3 1 6 -6 6 -9 0 -12 9 -9 23 3 15 0 24 -8 24 -7 0 -10 -6 -7 -14z"/>
<path d="M4005 7751 c-3 -5 -2 -12 3 -15 5 -3 9 1 9 9 0 17 -3 19 -12 6z"/>
<path d="M5136 7752 c-2 -4 4 -8 14 -8 10 0 16 4 14 8 -3 4 -9 8 -14 8 -5 0
-11 -4 -14 -8z"/>
<path d="M4131 7735 c1 -19 18 -51 18 -35 0 8 -4 22 -9 30 -5 8 -9 11 -9 5z"/>
<path d="M3980 7726 c0 -2 7 -7 16 -10 8 -3 12 -2 9 4 -6 10 -25 14 -25 6z"/>
<path d="M5003 7675 c0 -33 2 -45 4 -27 2 18 2 45 0 60 -2 15 -4 0 -4 -33z"/>
<path d="M5114 7722 c4 -3 14 -7 22 -8 9 -1 13 0 10 4 -4 3 -14 7 -22 8 -9 1
-13 0 -10 -4z"/>
<path d="M5226 7709 c-10 -10 -23 -16 -29 -12 -6 4 -7 1 -2 -6 5 -9 10 -10 18
-2 13 13 30 15 22 2 -3 -5 0 -13 6 -17 8 -4 9 -3 5 4 -4 7 -3 12 3 12 5 0 12
-8 14 -17 3 -10 4 -5 4 10 -2 38 -18 48 -41 26z"/>
<path d="M4103 7701 c0 -11 5 -17 9 -15 11 7 10 34 -1 34 -6 0 -9 -9 -8 -19z"/>
<path d="M4165 7709 c-4 -6 -5 -12 -2 -15 2 -3 7 2 10 11 7 17 1 20 -8 4z"/>
<path d="M4025 7701 c-3 -5 0 -13 6 -17 8 -5 9 -3 4 6 -6 10 -4 12 9 7 10 -4
15 -3 11 3 -8 13 -22 13 -30 1z"/>
<path d="M5101 7694 c0 -11 3 -14 6 -6 3 7 2 16 -1 19 -3 4 -6 -2 -5 -13z"/>
<path d="M3996 7684 c-7 -19 0 -34 17 -34 9 0 8 3 -1 8 -7 5 -10 16 -6 25 3 9
4 17 1 17 -3 0 -8 -7 -11 -16z"/>
<path d="M4180 7689 c0 -5 5 -7 10 -4 6 3 10 8 10 11 0 2 -4 4 -10 4 -5 0 -10
-5 -10 -11z"/>
<path d="M5040 7690 c0 -5 8 -6 17 -3 12 5 15 2 11 -8 -4 -11 2 -15 21 -16 14
0 18 1 9 4 -10 2 -18 11 -18 19 0 8 -9 14 -20 14 -11 0 -20 -4 -20 -10z"/>
<path d="M5135 7690 c3 -5 8 -10 11 -10 2 0 4 5 4 10 0 6 -5 10 -11 10 -5 0
-7 -4 -4 -10z"/>
<path d="M4126 7653 c-4 -9 -1 -21 5 -27 9 -8 10 -8 4 2 -4 8 0 19 11 27 17
13 17 14 3 15 -9 0 -20 -8 -23 -17z"/>
<path d="M5180 7655 c-7 -9 -8 -15 -2 -15 5 0 12 7 16 15 3 8 4 15 2 15 -2 0
-9 -7 -16 -15z"/>
<path d="M3965 7639 c-4 -6 -5 -12 -2 -15 2 -3 7 2 10 11 7 17 1 20 -8 4z"/>
<path d="M4066 7637 c3 -10 9 -15 12 -12 3 3 0 11 -7 18 -10 9 -11 8 -5 -6z"/>
<path d="M5030 7640 c-9 -6 -10 -10 -3 -10 6 0 15 5 18 10 8 12 4 12 -15 0z"/>
<path d="M5062 7624 c-7 -8 -8 -14 -3 -14 10 0 25 19 20 25 -2 1 -10 -3 -17
-11z"/>
<path d="M5195 7630 c-3 -5 -2 -10 4 -10 5 0 13 5 16 10 3 6 2 10 -4 10 -5 0
-13 -4 -16 -10z"/>
<path d="M4035 7611 c-3 -5 -2 -12 3 -15 5 -3 9 1 9 9 0 17 -3 19 -12 6z"/>
<path d="M4150 7600 c-1 -23 -2 -23 -10 -5 -7 16 -9 17 -9 3 -1 -20 11 -29 26
-20 6 4 7 15 2 27 -7 18 -8 18 -9 -5z"/>
<path d="M5085 7610 c-3 -6 1 -7 9 -4 18 7 21 14 7 14 -6 0 -13 -4 -16 -10z"/>
<path d="M4983 7551 c-17 -94 -64 -181 -129 -240 -55 -50 -175 -116 -224 -123
-14 -2 -25 -9 -24 -15 1 -7 2 -26 3 -43 1 -29 3 -30 48 -30 52 0 54 8 2 14
-23 2 -35 9 -38 21 -2 13 1 16 13 12 11 -4 18 1 22 17 4 16 18 27 46 37 22 7
58 26 79 41 22 16 39 24 39 18 0 -5 4 -10 10 -10 5 0 6 8 3 17 -5 12 -2 15 10
10 12 -4 14 -2 10 10 -5 12 -3 14 8 8 8 -4 11 -5 7 -1 -8 10 23 46 40 46 7 0
10 5 7 10 -3 6 -1 10 4 10 6 0 10 3 9 8 -3 13 25 62 32 57 4 -3 8 1 7 8 -1 34
4 48 15 41 7 -4 8 -3 4 4 -4 6 -4 22 -1 35 9 36 44 25 37 -11 -6 -34 3 -26 12
11 5 22 3 27 -13 27 -16 0 -20 8 -23 38 -3 33 -4 31 -15 -27z m-333 -381 c0
-5 -9 -10 -21 -10 -11 0 -17 5 -14 10 3 6 13 10 21 10 8 0 14 -4 14 -10z"/>
<path d="M5162 7591 c7 -9 14 -18 15 -20 2 -2 3 5 3 16 0 11 -7 20 -15 20 -12
0 -12 -3 -3 -16z"/>
<path d="M4097 7585 c-4 -8 -3 -16 1 -19 4 -3 9 4 9 15 2 23 -3 25 -10 4z"/>
<path d="M5047 7593 c-4 -6 4 -18 18 -27 15 -10 26 -12 30 -5 5 7 11 6 21 -2
8 -6 14 -7 14 -3 0 5 -9 15 -21 22 -12 8 -18 9 -15 3 4 -5 2 -12 -4 -16 -5 -3
-10 1 -10 10 0 9 -4 14 -9 11 -5 -4 -11 -1 -13 6 -3 8 -6 9 -11 1z"/>
<path d="M4065 7580 c-3 -5 -1 -10 4 -10 6 0 11 5 11 10 0 6 -2 10 -4 10 -3 0
-8 -4 -11 -10z"/>
<path d="M5195 7570 c-3 -6 1 -7 9 -4 18 7 21 14 7 14 -6 0 -13 -4 -16 -10z"/>
<path d="M4123 7551 c0 -11 5 -18 9 -15 4 3 5 11 1 19 -7 21 -12 19 -10 -4z"/>
<path d="M4021 7543 c-1 -17 16 -25 25 -12 4 7 3 9 -4 5 -5 -3 -13 0 -15 6 -4
9 -6 10 -6 1z"/>
<path d="M4156 7538 c3 -5 10 -6 15 -3 13 9 11 12 -6 12 -8 0 -12 -4 -9 -9z"/>
<path d="M5054 7537 c-4 -7 -3 -8 1 -4 5 4 17 -7 28 -25 10 -18 15 -24 11 -13
-3 11 -7 25 -7 32 -1 17 -25 24 -33 10z"/>
<path d="M5160 7540 c0 -5 5 -10 11 -10 5 0 7 5 4 10 -3 6 -8 10 -11 10 -2 0
-4 -4 -4 -10z"/>
<path d="M5130 7531 c0 -6 4 -13 10 -16 6 -3 7 1 4 9 -7 18 -14 21 -14 7z"/>
<path d="M5051 7501 c-8 -5 -9 -11 -3 -15 5 -3 12 1 16 9 6 17 6 18 -13 6z"/>
<path d="M5201 7493 c-10 -11 -10 -17 -2 -24 6 -5 9 -6 6 -3 -3 4 0 13 7 21
15 19 6 24 -11 6z"/>
<path d="M4013 7455 c-7 -21 -10 -41 -8 -43 2 -2 7 9 12 24 l7 29 6 -30 6 -30
5 32 c3 18 2 30 -2 27 -4 -2 -9 4 -11 13 -2 11 -8 2 -15 -22z"/>
<path d="M4100 7486 c0 -2 7 -9 15 -16 9 -7 15 -8 15 -2 0 5 -7 12 -15 16 -8
3 -15 4 -15 2z"/>
<path d="M5000 7478 c0 -12 7 -18 23 -17 15 0 17 2 7 6 -8 3 -18 11 -22 17 -5
7 -8 4 -8 -6z"/>
<path d="M5115 7480 c-3 -5 -1 -10 4 -10 6 0 11 5 11 10 0 6 -2 10 -4 10 -3 0
-8 -4 -11 -10z"/>
<path d="M5145 7460 c-3 -5 -1 -10 4 -10 6 0 11 5 11 10 0 6 -2 10 -4 10 -3 0
-8 -4 -11 -10z"/>
<path d="M4081 7444 c0 -11 3 -14 6 -6 3 7 2 16 -1 19 -3 4 -6 -2 -5 -13z"/>
<path d="M4214 7453 c10 -19 -4 -39 -15 -22 -6 10 -8 8 -6 -8 2 -12 6 -25 10
-28 4 -3 5 -2 2 2 -3 3 3 15 12 25 14 15 14 21 3 31 -10 9 -11 9 -6 0z"/>
<path d="M5075 7450 c3 -5 8 -10 11 -10 2 0 4 5 4 10 0 6 -5 10 -11 10 -5 0
-7 -4 -4 -10z"/>
<path d="M5170 7449 c0 -5 5 -7 10 -4 6 3 10 8 10 11 0 2 -4 4 -10 4 -5 0 -10
-5 -10 -11z"/>
<path d="M5020 7439 c0 -6 -5 -7 -12 -3 -7 4 -8 3 -4 -4 5 -9 13 -9 26 -2 12
7 20 6 23 0 3 -6 4 -5 3 1 -3 15 -36 21 -36 8z"/>
<path d="M4160 7425 c7 -9 15 -13 17 -11 7 7 -7 26 -19 26 -6 0 -6 -6 2 -15z"/>
<path d="M4970 7370 c13 -24 17 -25 17 -5 0 8 -6 16 -14 19 -11 4 -11 1 -3
-14z"/>
<path d="M4141 7364 c0 -11 3 -14 6 -6 3 7 2 16 -1 19 -3 4 -6 -2 -5 -13z"/>
<path d="M4181 7363 c7 -12 15 -20 18 -17 3 2 -3 12 -13 22 -17 16 -18 16 -5
-5z"/>
<path d="M4943 7365 c0 -8 4 -12 9 -9 5 3 6 10 3 15 -9 13 -12 11 -12 -6z"/>
<path d="M5087 7360 c-3 -11 -2 -22 2 -24 4 -3 8 6 9 20 2 29 -4 31 -11 4z"/>
<path d="M4053 7348 c0 -13 1 -17 4 -10 3 6 10 9 16 5 7 -4 6 1 -2 10 -17 21
-17 21 -18 -5z"/>
<path d="M5055 7359 c-4 -6 -5 -12 -2 -15 2 -3 7 2 10 11 7 17 1 20 -8 4z"/>
<path d="M5020 7330 c-9 -6 -10 -10 -3 -10 6 0 15 5 18 10 8 12 4 12 -15 0z"/>
<path d="M4895 7270 c-3 -5 -1 -10 4 -10 6 0 11 5 11 10 0 6 -2 10 -4 10 -3 0
-8 -4 -11 -10z"/>
<path d="M4976 7267 c3 -10 9 -15 12 -12 3 3 0 11 -7 18 -10 9 -11 8 -5 -6z"/>
<path d="M4070 7260 c8 -5 20 -10 25 -10 6 0 3 5 -5 10 -8 5 -19 10 -25 10 -5
0 -3 -5 5 -10z"/>
<path d="M4865 7259 c-4 -6 -5 -12 -2 -15 2 -3 7 2 10 11 7 17 1 20 -8 4z"/>
<path d="M3776 7251 c-3 -5 7 -11 22 -14 39 -8 144 -88 137 -104 -2 -8 -1 -11
4 -8 16 9 42 -37 29 -52 -6 -7 -7 -13 -3 -13 4 0 1 -8 -6 -17 -13 -16 -12 -17
3 -4 10 7 16 17 13 21 -3 5 -1 11 4 14 11 7 23 -22 14 -36 -3 -6 -1 -8 4 -5 6
4 13 -3 16 -15 4 -12 9 -19 13 -16 12 13 -60 130 -105 170 -52 46 -137 92
-145 79z"/>
<path d="M4375 7231 c-94 -44 -153 -118 -205 -252 -26 -71 -26 -89 3 -88 16 1
18 2 5 6 -23 6 -23 9 5 86 31 84 75 159 89 151 7 -5 8 -2 3 6 -6 10 -4 12 8 7
9 -3 19 -1 23 5 4 7 3 8 -4 4 -25 -15 -10 10 20 33 25 20 32 22 40 10 8 -11 9
-10 4 5 -5 14 -2 17 9 12 9 -3 14 -2 11 3 -3 5 8 14 24 20 30 10 30 9 30 -25
0 -18 -4 -34 -9 -34 -5 0 -11 -10 -14 -22 -6 -22 -6 -22 13 2 19 24 28 100 13
100 -5 0 -35 -13 -68 -29z"/>
<path d="M4953 7245 c0 -8 4 -12 9 -9 5 3 6 10 3 15 -9 13 -12 11 -12 -6z"/>
<path d="M5067 7243 c-9 -2 -15 -9 -12 -14 4 -5 15 -5 27 2 13 7 55 10 109 7
49 -2 83 -1 76 4 -13 8 -169 9 -200 1z"/>
<path d="M4817 7221 c-4 -17 -3 -21 5 -13 5 5 8 16 6 23 -3 8 -7 3 -11 -10z"/>
<path d="M4844 7220 c0 -13 4 -16 10 -10 7 7 7 13 0 20 -6 6 -10 3 -10 -10z"/>
<path d="M4988 7233 c7 -3 16 -2 19 1 4 3 -2 6 -13 5 -11 0 -14 -3 -6 -6z"/>
<path d="M5308 7233 c12 -2 20 -8 17 -13 -3 -4 3 -6 13 -3 10 2 47 -3 81 -12
35 -9 65 -14 68 -12 5 6 -168 48 -188 46 -8 -1 -4 -4 9 -6z"/>
<path d="M3770 7132 c0 -110 18 -192 57 -264 30 -56 92 -129 93 -110 0 6 4 11
9 10 8 -3 11 2 11 18 0 4 -7 0 -16 -7 -14 -12 -20 -9 -40 16 -50 62 -104 197
-103 260 0 19 0 19 10 2 12 -20 29 -14 28 11 0 14 -2 13 -9 -3 -6 -14 -9 -16
-10 -5 -2 8 -2 19 -1 23 1 5 -3 5 -10 2 -7 -5 -10 15 -7 69 2 42 0 76 -4 76
-5 0 -8 -44 -8 -98z"/>
<path d="M4880 7220 c-9 -6 -10 -10 -3 -10 6 0 15 5 18 10 8 12 4 12 -15 0z"/>
<path d="M5141 7214 c0 -11 3 -14 6 -6 3 7 2 16 -1 19 -3 4 -6 -2 -5 -13z"/>
<path d="M4908 7199 c-10 -10 -14 -19 -9 -19 6 0 13 5 16 10 4 6 11 8 16 5 5
-3 6 1 3 9 -3 9 -7 16 -8 15 0 0 -9 -9 -18 -20z"/>
<path d="M5034 7206 c-3 -9 -10 -16 -16 -16 -5 0 -6 5 -2 12 5 7 3 8 -6 3 -10
-6 -9 -11 5 -21 15 -11 16 -16 6 -28 -7 -8 -10 -20 -6 -26 9 -14 -8 -13 -23 2
-9 9 -12 9 -12 -1 0 -9 -26 -12 -102 -11 -201 2 -170 -4 52 -10 278 -8 397
-34 530 -115 110 -67 177 -147 235 -281 37 -85 47 -91 16 -9 -28 73 -53 119
-68 128 -7 4 -13 15 -13 22 0 8 -5 15 -11 15 -6 0 -9 7 -5 15 3 8 1 14 -3 12
-5 -1 -23 13 -40 31 -17 17 -35 32 -39 32 -11 1 -48 34 -55 50 -4 11 -6 12 -6
2 -1 -15 -62 18 -91 48 -8 9 -11 10 -6 3 11 -17 2 -16 -34 2 -17 9 -33 15 -37
15 -11 -1 -106 22 -116 27 -5 3 -29 6 -53 8 -24 2 -52 9 -61 16 -12 10 -15 10
-9 2 5 -9 1 -13 -13 -13 -23 0 -35 15 -25 31 4 8 9 7 16 -2 7 -10 8 -8 3 6 -7
23 -8 25 -6 43 0 7 5 11 11 7 5 -3 7 -12 3 -20 -3 -8 -3 -15 0 -15 13 0 14 30
2 40 -12 10 -16 9 -21 -4z"/>
<path d="M3816 7195 c-11 -8 -15 -15 -9 -15 6 0 16 7 23 15 16 19 11 19 -14 0z"/>
<path d="M4095 7200 c3 -5 8 -10 11 -10 2 0 4 5 4 10 0 6 -5 10 -11 10 -5 0
-7 -4 -4 -10z"/>
<path d="M5318 7189 c7 -9 11 -22 10 -29 -2 -7 3 -14 10 -15 7 -2 8 -1 2 2 -7
3 -5 12 7 26 10 11 12 17 5 13 -7 -4 -21 -2 -30 6 -15 11 -16 11 -4 -3z"/>
<path d="M4815 7180 c3 -5 8 -10 11 -10 2 0 4 5 4 10 0 6 -5 10 -11 10 -5 0
-7 -4 -4 -10z"/>
<path d="M5261 7182 c-1 -7 7 -16 17 -19 9 -4 23 -14 30 -22 11 -14 11 -13 2
7 -6 12 -17 22 -25 22 -7 0 -16 6 -18 13 -4 9 -6 9 -6 -1z"/>
<path d="M5448 7163 c5 -21 7 -23 10 -9 2 10 0 22 -6 28 -6 6 -7 0 -4 -19z"/>
<path d="M5500 7179 c0 -5 5 -7 11 -3 6 3 23 -3 38 -14 20 -15 28 -16 28 -6 0
7 -14 18 -30 24 -38 13 -47 13 -47 -1z"/>
<path d="M4678 7173 c10 -4 9 -9 -5 -20 -17 -13 -17 -14 2 -5 11 5 27 7 35 5
9 -3 7 1 -5 11 -11 8 -24 15 -30 15 -5 0 -4 -3 3 -6z"/>
<path d="M4747 7165 c3 -8 9 -13 13 -10 5 3 10 0 12 -6 2 -6 11 -10 20 -8 11
3 6 9 -17 21 -28 14 -33 14 -28 3z"/>
<path d="M5147 7165 c-8 -19 12 -30 26 -16 9 9 8 11 -6 5 -13 -5 -16 -2 -11
10 3 9 4 16 1 16 -3 0 -7 -7 -10 -15z"/>
<path d="M5224 7165 c8 -8 17 -15 20 -15 3 0 3 7 0 15 -4 8 -13 15 -21 15 -12
0 -12 -2 1 -15z"/>
<path d="M5370 7170 c-9 -6 -10 -10 -3 -10 6 0 15 5 18 10 8 12 4 12 -15 0z"/>
<path d="M5421 7164 c0 -11 3 -14 6 -6 3 7 2 16 -1 19 -3 4 -6 -2 -5 -13z"/>
<path d="M4347 7163 c-4 -3 -7 -11 -7 -17 0 -6 5 -5 12 2 6 6 9 14 7 17 -3 3
-9 2 -12 -2z"/>
<path d="M3824 7146 c-3 -8 -12 -12 -20 -9 -8 3 -14 3 -14 0 0 -16 31 -13 40
3 6 11 8 20 5 20 -3 0 -8 -6 -11 -14z"/>
<path d="M4442 7128 c0 -31 1 -31 9 -9 6 14 6 28 1 33 -5 5 -9 -5 -10 -24z"/>
<path d="M4950 7150 c0 -5 5 -10 11 -10 5 0 7 5 4 10 -3 6 -8 10 -11 10 -2 0
-4 -4 -4 -10z"/>
<path d="M5536 7141 c4 -16 3 -21 -5 -17 -6 4 -11 2 -11 -3 0 -6 4 -11 9 -11
17 0 22 19 11 37 -9 15 -10 14 -4 -6z"/>
<path d="M5605 7147 c11 -8 38 -21 60 -30 22 -8 39 -21 37 -27 -1 -6 2 -9 8
-5 12 7 76 -36 140 -95 42 -39 44 -42 27 -55 -10 -7 -14 -16 -9 -19 6 -3 13 2
16 11 6 14 12 11 38 -16 17 -17 46 -55 64 -84 19 -29 34 -49 34 -44 0 15 -54
93 -107 155 -68 78 -155 145 -243 189 -70 34 -99 43 -65 20z"/>
<path d="M4840 7146 c0 -2 7 -7 16 -10 8 -3 12 -2 9 4 -6 10 -25 14 -25 6z"/>
<path d="M5207 7136 c-4 -10 1 -12 14 -9 23 6 24 9 5 16 -8 3 -17 0 -19 -7z"/>
<path d="M5127 7129 c7 -7 15 -10 18 -7 3 3 -2 9 -12 12 -14 6 -15 5 -6 -5z"/>
<path d="M5280 7136 c0 -2 8 -10 18 -17 15 -13 16 -12 3 4 -13 16 -21 21 -21
13z"/>
<path d="M5577 7126 c-10 -8 -14 -16 -10 -19 5 -3 14 3 21 14 14 22 13 23 -11
5z"/>
<path d="M3877 7117 c-3 -8 1 -14 8 -14 7 0 11 6 8 14 -3 7 -6 13 -8 13 -2 0
-5 -6 -8 -13z"/>
<path d="M5493 7109 c-2 -23 3 -25 10 -4 4 8 3 16 -1 19 -4 3 -9 -4 -9 -15z"/>
<path d="M5320 7104 c0 -8 5 -12 10 -9 6 3 10 10 10 16 0 5 -4 9 -10 9 -5 0
-10 -7 -10 -16z"/>
<path d="M5383 7105 c0 -8 5 -11 10 -8 7 4 8 -1 3 -12 -5 -15 -4 -16 9 -5 8 7
15 8 15 2 0 -5 10 -12 22 -15 19 -5 20 -8 7 -24 -13 -16 -12 -17 4 -4 24 19
21 30 -9 41 -15 6 -22 14 -18 22 5 8 2 9 -9 5 -10 -3 -17 -2 -17 3 0 6 -4 10
-8 10 -5 0 -9 -7 -9 -15z"/>
<path d="M5597 7113 c-8 -12 30 -29 40 -19 4 3 -1 6 -9 6 -9 0 -18 5 -20 12
-3 9 -6 9 -11 1z"/>
<path d="M3820 7101 c0 -6 4 -13 10 -16 6 -3 7 1 4 9 -7 18 -14 21 -14 7z"/>
<path d="M3845 7100 c3 -5 8 -10 11 -10 2 0 4 5 4 10 0 6 -5 10 -11 10 -5 0
-7 -4 -4 -10z"/>
<path d="M4270 7100 c0 -5 6 -10 14 -10 8 0 16 -5 18 -12 3 -7 7 -4 12 7 4 11
4 16 0 13 -4 -4 -15 -3 -25 3 -13 6 -19 6 -19 -1z"/>
<path d="M4407 7099 c7 -7 15 -10 18 -7 3 3 -2 9 -12 12 -14 6 -15 5 -6 -5z"/>
<path d="M5465 7101 c-3 -5 -1 -12 5 -16 5 -3 10 1 10 9 0 18 -6 21 -15 7z"/>
<path d="M3900 7090 c-12 -7 -10 -9 7 -7 12 0 19 5 17 9 -6 10 -6 10 -24 -2z"/>
<path d="M5670 7085 c0 -8 4 -15 10 -15 5 0 7 7 4 15 -4 8 -8 15 -10 15 -2 0
-4 -7 -4 -15z"/>
<path d="M4442 7065 c0 -16 2 -22 5 -12 2 9 2 23 0 30 -3 6 -5 -1 -5 -18z"/>
<path d="M5513 7071 c0 -11 5 -18 9 -15 4 3 5 11 1 19 -7 21 -12 19 -10 -4z"/>
<path d="M4341 7064 c0 -11 3 -14 6 -6 3 7 2 16 -1 19 -3 4 -6 -2 -5 -13z"/>
<path d="M4360 7063 c0 -10 4 -14 8 -8 4 6 11 13 16 18 5 4 2 7 -7 7 -10 0
-17 -8 -17 -17z"/>
<path d="M5590 7070 c-8 -5 -12 -11 -10 -14 3 -2 14 2 24 10 22 15 10 19 -14
4z"/>
<path d="M3831 7064 c-1 -6 5 -17 12 -23 10 -8 14 -7 14 4 0 8 -4 12 -8 9 -4
-2 -10 2 -12 8 -4 8 -6 9 -6 2z"/>
<path d="M4245 7060 c-4 -6 -3 -10 2 -9 19 3 33 -2 33 -12 0 -6 -7 -9 -15 -5
-9 3 -19 -3 -25 -17 -11 -21 -11 -21 4 -3 15 18 20 15 17 -9 -1 -5 6 -1 14 9
20 26 19 33 -4 46 -14 7 -22 7 -26 0z"/>
<path d="M3887 7049 c7 -7 15 -10 18 -7 3 3 -2 9 -12 12 -14 6 -15 5 -6 -5z"/>
<path d="M5560 7041 c0 -7 -5 -9 -12 -5 -7 5 -8 3 -3 -5 5 -9 10 -10 18 -2 6
6 8 14 4 18 -4 3 -7 1 -7 -6z"/>
<path d="M5603 7033 c0 -9 4 -10 14 -2 7 6 13 12 13 14 0 1 -6 2 -13 2 -8 0
-14 -6 -14 -14z"/>
<path d="M4361 7027 c-8 -10 -7 -14 2 -14 8 0 14 6 14 14 0 7 -1 13 -2 13 -2
0 -8 -6 -14 -13z"/>
<path d="M5490 7026 c0 -8 5 -18 12 -22 7 -4 8 -3 4 4 -9 16 7 15 22 0 6 -6
14 -9 17 -7 2 3 -9 13 -25 23 -26 14 -30 15 -30 2z"/>
<path d="M4432 7010 c0 -14 2 -19 5 -12 2 6 2 18 0 25 -3 6 -5 1 -5 -13z"/>
<path d="M3930 7010 c-9 -6 -10 -10 -3 -10 6 0 15 5 18 10 8 12 4 12 -15 0z"/>
<path d="M5620 7010 c0 -5 5 -10 10 -10 6 0 10 5 10 10 0 6 -4 10 -10 10 -5 0
-10 -4 -10 -10z"/>
<path d="M5560 7001 c0 -6 4 -13 10 -16 6 -3 7 1 4 9 -7 18 -14 21 -14 7z"/>
<path d="M5580 7004 c0 -2 9 -8 20 -14 15 -8 18 -8 14 3 -4 11 -34 21 -34 11z"/>
<path d="M3850 6990 c0 -5 5 -10 11 -10 5 0 7 5 4 10 -3 6 -8 10 -11 10 -2 0
-4 -4 -4 -10z"/>
<path d="M4376 6988 c3 -5 10 -6 15 -3 13 9 11 12 -6 12 -8 0 -12 -4 -9 -9z"/>
<path d="M3960 6981 c0 -6 4 -13 10 -16 6 -3 7 1 4 9 -7 18 -14 21 -14 7z"/>
<path d="M4026 6975 c-9 -26 -7 -32 5 -12 6 10 9 21 6 23 -2 3 -7 -2 -11 -11z"/>
<path d="M4255 6981 c5 -8 -2 -10 -22 -6 -22 4 -24 3 -8 -3 16 -7 17 -10 5
-14 -8 -3 -6 -3 5 -1 11 3 28 5 38 4 23 0 22 6 -4 20 -16 8 -20 8 -14 0z"/>
<path d="M5820 6981 c0 -6 4 -13 10 -16 6 -3 7 1 4 9 -7 18 -14 21 -14 7z"/>
<path d="M3810 6971 c0 -6 4 -13 10 -16 6 -3 7 1 4 9 -7 18 -14 21 -14 7z"/>
<path d="M4406 6930 c-14 -38 -21 -48 -28 -38 -8 10 -8 9 -4 -4 7 -24 -3 -50
-17 -41 -5 3 -7 1 -3 -5 11 -17 -11 -23 -25 -6 -8 9 -21 13 -35 10 -12 -3 -25
-1 -27 4 -3 6 -4 5 -3 -2 2 -7 14 -13 29 -13 43 0 49 -16 20 -53 -20 -26 -28
-31 -35 -20 -6 9 -8 8 -6 -7 2 -12 -2 -19 -10 -17 -8 1 -11 -2 -7 -8 3 -5 -3
-10 -14 -10 -12 0 -21 -4 -21 -8 0 -5 -10 -14 -22 -20 -17 -8 -19 -11 -6 -11
19 -1 95 55 138 102 35 37 104 170 98 187 -2 6 -12 -12 -22 -40z"/>
<path d="M5710 6965 c7 -8 17 -15 22 -15 5 0 3 7 -6 15 -8 8 -18 15 -22 15 -3
0 -1 -7 6 -15z"/>
<path d="M4313 6955 c0 -8 4 -12 9 -9 5 3 6 10 3 15 -9 13 -12 11 -12 -6z"/>
<path d="M4370 6955 c-7 -8 -16 -13 -20 -10 -4 3 -10 -1 -13 -9 -8 -21 27 -9
41 15 14 23 10 25 -8 4z"/>
<path d="M3956 6947 c3 -10 9 -15 12 -12 3 3 0 11 -7 18 -10 9 -11 8 -5 -6z"/>
<path d="M4041 6955 c0 -5 4 -28 9 -50 6 -26 5 -42 -1 -46 -7 -4 -4 -9 5 -12
12 -5 16 0 15 16 -1 24 -26 109 -28 92z"/>
<path d="M5608 6953 c7 -3 16 -2 19 1 4 3 -2 6 -13 5 -11 0 -14 -3 -6 -6z"/>
<path d="M5770 6955 c0 -8 29 -12 39 -5 9 5 4 8 -13 8 -14 0 -26 -2 -26 -3z"/>
<path d="M4255 6941 c-6 -11 13 -26 22 -17 4 3 1 6 -6 6 -7 0 -9 5 -6 10 3 6
4 10 1 10 -3 0 -7 -4 -11 -9z"/>
<path d="M5680 6930 c-29 -22 -45 -26 -34 -7 4 6 3 9 -1 4 -5 -4 -10 -18 -12
-30 -2 -14 0 -18 5 -9 5 7 15 11 23 9 8 -2 10 -2 5 1 -4 2 5 15 20 28 35 28
29 32 -6 4z"/>
<path d="M3843 6919 c-1 -12 4 -19 15 -18 11 0 12 2 4 6 -6 2 -10 9 -7 13 3 5
2 11 -3 14 -4 2 -9 -4 -9 -15z"/>
<path d="M3948 6912 c9 -10 19 -14 21 -9 2 5 -3 13 -10 18 -24 15 -30 10 -11
-9z"/>
<path d="M5836 6917 c3 -10 9 -15 12 -12 3 3 0 11 -7 18 -10 9 -11 8 -5 -6z"/>
<path d="M3915 6901 c-3 -5 -2 -12 3 -15 5 -3 9 1 9 9 0 17 -3 19 -12 6z"/>
<path d="M4236 6896 c3 -8 13 -17 22 -21 13 -5 13 -2 -3 15 -21 24 -26 25 -19
6z"/>
<path d="M5781 6894 c0 -11 3 -14 6 -6 3 7 2 16 -1 19 -3 4 -6 -2 -5 -13z"/>
<path d="M4008 6893 c7 -3 16 -2 19 1 4 3 -2 6 -13 5 -11 0 -14 -3 -6 -6z"/>
<path d="M4280 6889 c0 -5 5 -7 10 -4 6 3 10 8 10 11 0 2 -4 4 -10 4 -5 0 -10
-5 -10 -11z"/>
<path d="M5885 6890 c-6 -10 2 -14 19 -11 5 1 12 -3 16 -10 5 -7 10 -7 13 -2
4 6 -5 15 -18 21 -15 7 -26 8 -30 2z"/>
<path d="M3875 6880 c-4 -6 -11 -7 -17 -4 -7 5 -8 2 -4 -5 5 -7 11 -10 14 -7
3 3 12 0 21 -7 14 -10 14 -10 4 4 -7 9 -10 19 -6 22 3 4 4 7 0 7 -3 0 -9 -5
-12 -10z"/>
<path d="M4135 6813 c-4 -38 -9 -77 -12 -88 -3 -13 -2 -17 5 -10 10 10 28 165
19 165 -3 0 -8 -30 -12 -67z"/>
<path d="M4336 6863 c-6 -14 -5 -15 5 -6 7 7 10 15 7 18 -3 3 -9 -2 -12 -12z"/>
<path d="M5653 6865 c-3 -9 -3 -19 1 -22 3 -4 6 1 6 10 0 8 6 18 13 20 9 4 9
6 -1 6 -7 1 -15 -6 -19 -14z"/>
<path d="M4165 6860 c3 -5 8 -10 11 -10 2 0 4 5 4 10 0 6 -5 10 -11 10 -5 0
-7 -4 -4 -10z"/>
<path d="M5766 6854 c-4 -9 -4 -19 -1 -22 2 -3 7 3 11 12 4 9 4 19 1 22 -2 3
-7 -3 -11 -12z"/>
<path d="M5836 6858 c3 -4 12 -8 20 -8 8 0 14 4 14 8 0 4 -9 8 -19 8 -11 0
-17 -4 -15 -8z"/>
<path d="M3920 6851 c11 -8 12 -13 4 -18 -13 -9 2 -26 26 -31 13 -2 13 0 0 10
-8 7 -15 19 -15 27 0 8 -7 16 -15 18 -13 4 -13 3 0 -6z"/>
<path d="M5820 6840 c6 -11 13 -20 16 -20 2 0 0 9 -6 20 -6 11 -13 20 -16 20
-2 0 0 -9 6 -20z"/>
<path d="M3990 6830 c0 -5 5 -10 11 -10 5 0 7 5 4 10 -3 6 -8 10 -11 10 -2 0
-4 -4 -4 -10z"/>
<path d="M4160 6836 c0 -2 7 -7 16 -10 8 -3 12 -2 9 4 -6 10 -25 14 -25 6z"/>
<path d="M5685 6831 c-3 -5 -2 -12 3 -15 5 -3 9 1 9 9 0 17 -3 19 -12 6z"/>
<path d="M5858 6833 c7 -3 16 -2 19 1 4 3 -2 6 -13 5 -11 0 -14 -3 -6 -6z"/>
<path d="M5931 6827 c-8 -11 -6 -18 12 -33 12 -10 19 -15 15 -10 -4 5 -3 18 3
30 9 19 9 19 -4 4 -8 -10 -17 -15 -20 -11 -4 3 -2 12 4 20 6 7 9 13 6 13 -2 0
-10 -6 -16 -13z"/>
<path d="M4065 6809 c6 -33 15 -36 15 -6 0 15 -4 27 -9 27 -6 0 -8 -10 -6 -21z"/>
<path d="M4015 6810 c-3 -6 1 -7 9 -4 18 7 21 14 7 14 -6 0 -13 -4 -16 -10z"/>
<path d="M4230 6809 c0 -5 5 -7 10 -4 6 3 10 8 10 11 0 2 -4 4 -10 4 -5 0 -10
-5 -10 -11z"/>
<path d="M3898 6803 c7 -3 16 -2 19 1 4 3 -2 6 -13 5 -11 0 -14 -3 -6 -6z"/>
<path d="M5705 6799 c-4 -6 -5 -12 -2 -15 2 -3 7 2 10 11 7 17 1 20 -8 4z"/>
<path d="M3970 6790 c-9 -6 -10 -10 -3 -10 6 0 15 5 18 10 8 12 4 12 -15 0z"/>
<path d="M4046 6787 c3 -10 9 -15 12 -12 3 3 0 11 -7 18 -10 9 -11 8 -5 -6z"/>
<path d="M4277 6789 c7 -7 15 -10 18 -7 3 3 -2 9 -12 12 -14 6 -15 5 -6 -5z"/>
<path d="M5780 6796 c0 -2 7 -9 15 -16 13 -11 14 -10 9 4 -5 14 -24 23 -24 12z"/>
<path d="M5887 6775 c3 -8 9 -12 14 -9 12 7 11 11 -5 17 -10 4 -13 1 -9 -8z"/>
<path d="M3959 6763 c-1 -5 -1 -12 0 -17 1 -5 -5 -6 -14 -2 -30 11 -5 -12 40
-37 25 -14 45 -21 45 -15 0 5 7 8 14 5 10 -4 13 -1 9 9 -4 11 -9 12 -18 4 -21
-17 -75 14 -70 40 2 11 2 20 -1 20 -2 0 -5 -3 -5 -7z"/>
<path d="M4074 6748 c7 -58 33 -88 51 -58 3 6 -3 10 -14 10 -17 0 -21 6 -21
29 0 17 -4 32 -9 35 -5 4 -8 -4 -7 -16z"/>
<path d="M4164 6754 c-18 -14 -18 -15 4 -4 12 6 22 13 22 15 0 8 -5 6 -26 -11z"/>
<path d="M4207 6755 c-4 -8 -3 -16 1 -19 4 -3 9 4 9 15 2 23 -3 25 -10 4z"/>
<path d="M4035 6750 c-3 -6 1 -7 9 -4 18 7 21 14 7 14 -6 0 -13 -4 -16 -10z"/>
<path d="M5845 6750 c-3 -6 1 -13 11 -17 16 -6 15 -7 -2 -20 -10 -7 -19 -21
-20 -31 -2 -12 4 -9 20 11 12 15 26 24 32 20 5 -5 0 2 -13 14 -15 15 -18 23
-10 26 9 4 9 6 0 6 -6 1 -15 -4 -18 -9z"/>
<path d="M5960 6735 c13 -14 27 -25 32 -25 5 0 -3 11 -18 25 -15 14 -29 25
-32 25 -3 0 5 -11 18 -25z"/>
<path d="M5731 6734 c0 -11 3 -14 6 -6 3 7 2 16 -1 19 -3 4 -6 -2 -5 -13z"/>
<path d="M5890 6735 c7 -8 20 -14 29 -14 13 1 13 2 -2 6 -9 2 -15 9 -12 14 4
5 -1 9 -11 9 -13 0 -14 -3 -4 -15z"/>
<path d="M6036 6735 c39 -123 41 -135 31 -135 -7 0 -7 -4 2 -9 8 -5 12 -18 8
-30 -3 -12 -1 -19 4 -15 5 3 9 -5 9 -17 0 -20 -2 -21 -17 -7 -10 8 -25 18 -33
22 -15 7 8 -14 42 -38 13 -9 17 -31 20 -95 1 -45 5 -84 9 -87 12 -7 -3 170
-21 258 -11 48 -28 107 -40 130 -11 24 -17 34 -14 23z"/>
<path d="M4176 6725 c-3 -8 -1 -15 4 -15 6 0 10 7 10 15 0 8 -2 15 -4 15 -2 0
-6 -7 -10 -15z"/>
<path d="M5818 6723 c7 -3 16 -2 19 1 4 3 -2 6 -13 5 -11 0 -14 -3 -6 -6z"/>
<path d="M3730 6653 c0 -69 15 -181 25 -191 3 -3 11 0 18 8 7 8 8 10 1 7 -16
-9 -25 44 -11 62 9 11 9 13 1 8 -18 -10 -22 12 -21 97 1 42 -1 76 -5 76 -5 0
-8 -30 -8 -67z"/>
<path d="M4425 6707 c-102 -40 -177 -110 -234 -216 -36 -69 -71 -190 -71 -249
0 -68 -24 -47 -32 27 -10 93 -17 97 -15 9 1 -42 4 -74 6 -72 2 2 10 -1 17 -6
6 -6 17 -9 24 -8 7 2 15 -3 18 -11 2 -8 0 -11 -5 -8 -5 3 -15 1 -23 -4 -11 -7
-7 -8 14 -5 16 3 33 10 38 16 4 5 5 8 2 5 -4 -3 -13 0 -21 6 -21 18 -15 138 6
124 4 -2 5 9 3 26 -3 23 -1 29 14 29 12 0 15 3 8 8 -14 9 -9 42 8 53 7 5 10 9
6 9 -4 0 -2 13 3 30 6 16 15 27 20 24 5 -3 7 1 4 8 -3 7 9 30 26 51 24 30 34
36 41 25 6 -9 7 -6 3 9 -3 12 -1 24 5 28 10 6 14 -6 11 -35 -2 -12 0 -13 7 -1
6 8 15 10 23 5 11 -6 12 -5 2 8 -7 8 -9 18 -5 22 4 4 3 7 -3 6 -21 -5 -26 0
-13 13 17 15 106 62 136 72 21 6 23 4 20 -17 -2 -17 -10 -23 -28 -24 -44 -2
-50 -4 -50 -16 0 -9 3 -9 12 0 17 17 28 15 28 -4 0 -13 2 -13 18 2 16 17 17
17 20 -6 6 -36 -8 -131 -18 -125 -4 3 -6 -5 -3 -16 4 -14 0 -25 -11 -31 -11
-6 -15 -16 -10 -30 4 -13 2 -18 -4 -14 -6 4 -8 -2 -5 -14 4 -16 2 -19 -13 -14
-14 4 -15 3 -5 -4 16 -11 1 -46 -24 -56 -8 -3 -15 -15 -15 -27 0 -12 -5 -19
-12 -16 -7 2 -12 11 -10 21 2 9 -1 16 -7 16 -10 0 -10 -18 1 -35 9 -15 -29
-58 -44 -49 -7 4 -10 4 -6 -1 10 -11 -52 -56 -65 -48 -6 4 -7 1 -2 -7 6 -10 3
-12 -14 -7 -13 3 -21 4 -18 1 10 -10 -52 -64 -75 -65 -20 -1 -19 -2 7 -9 17
-4 25 -8 18 -9 -6 0 -12 -9 -12 -18 0 -10 -3 -38 -7 -63 l-7 -45 -13 30 c-17
39 -17 14 1 -55 11 -45 13 -49 14 -23 1 18 6 55 12 83 6 29 12 57 13 63 11 52
36 81 94 108 71 35 154 123 195 209 40 85 57 162 57 262 0 73 -2 75 -55 55z"/>
<path d="M3812 6683 c32 -14 55 -29 53 -34 -3 -4 -1 -10 5 -14 5 -3 10 -1 10
6 0 7 9 3 20 -9 12 -12 25 -22 30 -22 16 0 71 -83 65 -97 -2 -8 0 -11 5 -8 5
3 15 -7 21 -22 7 -15 17 -41 24 -58 7 -16 15 -37 18 -45 2 -8 3 -2 1 13 -7 54
-66 161 -118 212 -47 47 -146 105 -178 105 -7 0 13 -12 44 -27z"/>
<path d="M5780 6691 c0 -7 -6 -11 -14 -8 -14 6 -32 -21 -21 -31 3 -3 5 0 5 6
0 7 6 12 14 12 17 0 31 18 22 27 -3 4 -6 1 -6 -6z"/>
<path d="M5980 6690 c0 -5 5 -10 11 -10 5 0 7 5 4 10 -3 6 -8 10 -11 10 -2 0
-4 -4 -4 -10z"/>
<path d="M4146 6679 c4 -6 1 -15 -6 -19 -7 -4 -8 -10 -3 -13 5 -3 14 3 21 13
9 14 8 19 -4 24 -9 4 -12 2 -8 -5z"/>
<path d="M5940 6686 c0 -2 7 -7 16 -10 8 -3 12 -2 9 4 -6 10 -25 14 -25 6z"/>
<path d="M4067 6611 c12 -36 23 -77 24 -91 l1 -25 9 25 c6 18 7 12 4 -25 -6
-65 10 -29 18 40 3 28 3 42 1 33 -8 -26 -23 -22 -35 9 -7 19 -6 28 1 33 8 5 7
9 -4 13 -22 9 -20 22 4 24 13 1 18 -2 14 -9 -4 -7 -2 -8 5 -4 9 6 9 11 -1 23
-7 9 -14 11 -16 5 -2 -6 -10 -8 -18 -5 -7 3 -12 8 -9 12 2 4 -1 8 -8 8 -9 0
-6 -20 10 -66z"/>
<path d="M5790 6663 c0 -7 5 -15 10 -18 6 -4 8 -11 5 -16 -4 -5 -1 -9 4 -9 15
0 13 11 -4 34 -8 11 -15 15 -15 9z"/>
<path d="M5913 6655 c0 -8 4 -12 9 -9 5 3 6 10 3 15 -9 13 -12 11 -12 -6z"/>
<path d="M5995 6641 c-6 -11 13 -26 22 -17 4 3 0 6 -8 6 -11 0 -11 2 1 10 9 6
10 10 3 10 -6 0 -14 -4 -18 -9z"/>
<path d="M3819 6639 c-6 -17 -5 -47 2 -43 4 2 5 12 2 21 -4 11 -3 14 5 9 7 -4
12 -16 12 -27 0 -10 4 -19 9 -19 13 0 2 37 -15 51 -8 6 -15 10 -15 8z"/>
<path d="M5966 6627 c3 -10 9 -15 12 -12 3 3 0 11 -7 18 -10 9 -11 8 -5 -6z"/>
<path d="M4132 6610 c0 -14 2 -19 5 -12 2 6 2 18 0 25 -3 6 -5 1 -5 -13z"/>
<path d="M4445 6621 c-3 -5 -2 -12 3 -15 5 -3 9 1 9 9 0 17 -3 19 -12 6z"/>
<path d="M5829 6613 c-13 -16 -12 -17 4 -4 16 13 21 21 13 21 -2 0 -10 -8 -17
-17z"/>
<path d="M4340 6610 c0 -5 7 -7 15 -4 8 4 15 8 15 10 0 2 -7 4 -15 4 -8 0 -15
-4 -15 -10z"/>
<path d="M5736 6600 c3 -14 8 -47 12 -74 6 -46 8 -48 22 -31 9 11 10 16 3 11
-9 -5 -13 0 -13 14 0 13 9 24 25 30 14 5 25 12 25 15 0 2 -12 0 -26 -5 -35
-14 -39 -13 -24 5 7 9 10 18 6 22 -3 3 -6 0 -6 -8 -1 -8 -7 0 -15 16 -12 26
-14 27 -9 5z"/>
<path d="M5890 6615 c0 -7 30 -13 34 -7 3 4 -4 9 -15 9 -10 1 -19 0 -19 -2z"/>
<path d="M3868 6603 c6 -2 18 -2 25 0 6 3 1 5 -13 5 -14 0 -19 -2 -12 -5z"/>
<path d="M5936 6602 c-3 -5 1 -9 9 -9 8 0 12 4 9 9 -3 4 -7 8 -9 8 -2 0 -6 -4
-9 -8z"/>
<path d="M5977 6592 c-14 -15 -15 -19 -2 -19 8 0 12 4 9 8 -2 4 2 9 8 12 7 2
10 7 7 11 -3 3 -13 -2 -22 -12z"/>
<path d="M6028 6603 c7 -3 16 -2 19 1 4 3 -2 6 -13 5 -11 0 -14 -3 -6 -6z"/>
<path d="M3774 6588 c-4 -7 -3 -8 4 -4 11 7 17 -6 13 -27 -1 -5 3 -6 9 -2 7 4
7 12 0 26 -12 22 -16 23 -26 7z"/>
<path d="M5785 6590 c-3 -5 -1 -10 4 -10 6 0 11 5 11 10 0 6 -2 10 -4 10 -3 0
-8 -4 -11 -10z"/>
<path d="M5880 6590 c-9 -6 -10 -10 -3 -10 6 0 15 5 18 10 8 12 4 12 -15 0z"/>
<path d="M4400 6583 c0 -3 6 -10 13 -17 11 -11 16 -11 32 0 10 8 15 17 10 21
-4 5 -10 2 -12 -4 -3 -7 -9 -13 -14 -13 -6 0 -8 4 -5 8 3 5 -1 9 -9 9 -8 0
-15 -2 -15 -4z"/>
<path d="M6026 6575 c-3 -8 -1 -15 4 -15 6 0 10 7 10 15 0 8 -2 15 -4 15 -2 0
-6 -7 -10 -15z"/>
<path d="M3820 6571 c0 -6 4 -13 10 -16 6 -3 7 1 4 9 -7 18 -14 21 -14 7z"/>
<path d="M4381 6564 c0 -11 3 -14 6 -6 3 7 2 16 -1 19 -3 4 -6 -2 -5 -13z"/>
<path d="M3905 6559 c-4 -6 -5 -12 -2 -15 2 -3 7 2 10 11 7 17 1 20 -8 4z"/>
<path d="M5890 6555 c0 -8 2 -15 4 -15 2 0 6 7 10 15 3 8 1 15 -4 15 -6 0 -10
-7 -10 -15z"/>
<path d="M5936 6562 c-3 -5 1 -9 9 -9 8 0 12 4 9 9 -3 4 -7 8 -9 8 -2 0 -6 -4
-9 -8z"/>
<path d="M3839 6533 c-13 -16 -12 -17 4 -4 9 7 17 15 17 17 0 8 -8 3 -21 -13z"/>
<path d="M5838 6543 c7 -3 16 -2 19 1 4 3 -2 6 -13 5 -11 0 -14 -3 -6 -6z"/>
<path d="M3875 6530 c3 -5 8 -10 11 -10 2 0 4 5 4 10 0 6 -5 10 -11 10 -5 0
-7 -4 -4 -10z"/>
<path d="M5966 6527 c3 -10 9 -15 12 -12 3 3 0 11 -7 18 -10 9 -11 8 -5 -6z"/>
<path d="M3765 6521 c-3 -5 -2 -12 3 -15 5 -3 9 1 9 9 0 17 -3 19 -12 6z"/>
<path d="M3794 6519 c-4 -7 -3 -9 4 -5 5 3 13 0 15 -6 4 -9 6 -10 6 -1 1 17
-16 25 -25 12z"/>
<path d="M4248 6505 c-9 -20 -9 -28 1 -38 10 -9 11 -8 6 5 -4 9 -2 26 5 37 6
12 8 21 5 21 -3 0 -11 -11 -17 -25z"/>
<path d="M4353 6513 c18 -21 18 -21 0 -26 -14 -4 -14 -5 5 -6 12 0 22 4 22 9
0 6 0 13 0 18 0 4 -3 7 -7 7 -5 0 -15 4 -23 9 -10 6 -9 2 3 -11z"/>
<path d="M4406 6518 c3 -5 1 -15 -6 -23 -8 -9 -8 -15 0 -20 6 -4 10 -3 9 2 -4
21 2 24 19 12 15 -13 16 -12 4 3 -8 9 -11 21 -8 26 3 5 -1 9 -9 9 -8 0 -12 -4
-9 -9z"/>
<path d="M5829 6513 c-12 -16 -12 -17 2 -6 9 7 20 9 24 5 5 -4 5 -1 1 6 -9 16
-11 15 -27 -5z"/>
<path d="M5870 6526 c0 -3 9 -10 20 -16 11 -6 20 -8 20 -6 0 3 -9 10 -20 16
-11 6 -20 8 -20 6z"/>
<path d="M3865 6508 c11 -6 23 -16 27 -22 5 -8 8 -7 8 1 0 7 -9 17 -19 23 -27
14 -41 12 -16 -2z"/>
<path d="M5941 6494 c-12 -27 -11 -28 4 -12 10 9 16 21 13 28 -2 7 -10 -1 -17
-16z"/>
<path d="M5810 6483 c0 -6 6 -14 13 -16 9 -4 8 -8 -3 -16 -9 -7 -10 -11 -3
-11 21 0 26 21 9 38 -9 9 -16 11 -16 5z"/>
<path d="M3905 6469 c-4 -6 -5 -12 -2 -15 2 -3 7 2 10 11 7 17 1 20 -8 4z"/>
<path d="M4295 6469 c-11 -17 1 -21 15 -4 8 9 8 15 2 15 -6 0 -14 -5 -17 -11z"/>
<path d="M5970 6471 c0 -4 11 -6 25 -3 14 2 25 6 25 8 0 2 -11 4 -25 4 -14 0
-25 -4 -25 -9z"/>
<path d="M3926 6453 c-6 -14 -5 -15 5 -6 7 7 10 15 7 18 -3 3 -9 -2 -12 -12z"/>
<path d="M3955 6459 c-4 -6 -5 -12 -2 -15 2 -3 7 2 10 11 7 17 1 20 -8 4z"/>
<path d="M4325 6461 c-3 -5 -1 -12 5 -16 17 -10 11 -25 -7 -19 -16 5 -16 4 0
-6 23 -14 32 -7 22 17 -5 10 -7 21 -7 26 3 10 -6 9 -13 -2z"/>
<path d="M4356 6461 c-3 -4 1 -17 10 -27 14 -18 15 -18 5 3 -8 16 -8 23 2 26
9 4 9 6 0 6 -6 1 -14 -3 -17 -8z"/>
<path d="M5760 6417 c0 -31 4 -57 9 -57 8 0 4 100 -5 109 -2 2 -4 -21 -4 -52z"/>
<path d="M6022 6461 c-11 -7 -11 -9 0 -14 9 -3 15 1 15 9 0 8 -1 14 -1 14 -1
0 -7 -4 -14 -9z"/>
<path d="M3805 6450 c3 -5 8 -10 11 -10 2 0 4 5 4 10 0 6 -5 10 -11 10 -5 0
-7 -4 -4 -10z"/>
<path d="M6055 6450 c-3 -6 1 -7 9 -4 18 7 21 14 7 14 -6 0 -13 -4 -16 -10z"/>
<path d="M3760 6447 c0 -14 49 -113 65 -132 11 -13 10 -7 -5 19 -17 31 -19 41
-8 48 9 7 8 8 -4 4 -13 -4 -18 0 -18 12 -1 16 -30 64 -30 49z"/>
<path d="M4226 6435 c-3 -9 -6 -22 -5 -28 0 -7 5 -1 10 12 5 13 8 26 5 28 -2
2 -6 -3 -10 -12z"/>
<path d="M5984 6434 c9 -8 16 -20 16 -26 0 -6 3 -9 6 -6 8 9 -14 48 -27 48 -6
0 -3 -7 5 -16z"/>
<path d="M5920 6415 c-9 -10 -9 -15 -1 -15 6 0 11 4 11 9 0 5 8 12 18 14 14 4
14 5 1 6 -9 0 -22 -6 -29 -14z"/>
<path d="M3910 6418 c3 -3 19 -12 37 -20 26 -13 30 -13 26 -2 -3 8 -11 14 -18
14 -7 0 -22 3 -32 7 -10 3 -16 4 -13 1z"/>
<path d="M4190 6405 c7 -9 15 -13 17 -11 7 7 -7 26 -19 26 -6 0 -6 -6 2 -15z"/>
<path d="M4301 6401 c-8 -5 -9 -11 -3 -15 5 -3 12 1 16 9 6 17 6 18 -13 6z"/>
<path d="M5940 6402 c0 -5 7 -15 15 -22 8 -7 15 -9 15 -6 0 4 -7 14 -15 22 -8
9 -15 11 -15 6z"/>
<path d="M6070 6399 c0 -5 5 -7 10 -4 6 3 10 8 10 11 0 2 -4 4 -10 4 -5 0 -10
-5 -10 -11z"/>
<path d="M3837 6385 c3 -8 9 -12 14 -9 12 7 11 11 -5 17 -10 4 -13 1 -9 -8z"/>
<path d="M3870 6381 c0 -10 19 -25 25 -20 1 2 -3 10 -11 17 -8 7 -14 8 -14 3z"/>
<path d="M3940 6386 c0 -2 8 -10 18 -17 15 -13 16 -12 3 4 -13 16 -21 21 -21
13z"/>
<path d="M5840 6372 c9 -19 30 -23 30 -5 0 4 -3 3 -7 0 -3 -4 -12 1 -20 11
-13 15 -13 15 -3 -6z"/>
<path d="M6000 6378 c-12 -8 -12 -9 2 -5 9 3 19 1 22 -6 3 -9 5 -9 5 0 1 18
-13 23 -29 11z"/>
<path d="M3920 6374 c0 -5 6 -16 12 -22 10 -10 10 -15 -2 -22 -9 -6 -10 -10
-3 -10 21 0 25 19 9 42 -9 12 -16 18 -16 12z"/>
<path d="M5886 6364 c-20 -19 -20 -21 -1 -21 8 0 13 3 10 5 -3 3 0 11 6 19 16
18 4 16 -15 -3z"/>
<path d="M5922 6360 c-15 -25 -15 -30 0 -30 6 0 8 3 5 7 -4 3 -2 12 5 20 6 7
9 15 7 18 -3 2 -10 -5 -17 -15z"/>
<path d="M6039 6358 c-6 -13 -8 -20 -4 -16 5 4 15 2 24 -5 14 -10 14 -10 3 5
-8 9 -11 22 -7 28 3 5 4 10 1 10 -3 0 -11 -10 -17 -22z"/>
<path d="M6070 6369 c0 -5 5 -7 10 -4 6 3 10 8 10 11 0 2 -4 4 -10 4 -5 0 -10
-5 -10 -11z"/>
<path d="M3981 6356 c-9 -11 -9 -16 0 -22 7 -4 9 -3 5 4 -3 6 2 15 11 21 10 6
13 11 7 11 -6 0 -17 -6 -23 -14z"/>
<path d="M4205 6360 c-3 -5 -1 -10 4 -10 6 0 11 5 11 10 0 6 -2 10 -4 10 -3 0
-8 -4 -11 -10z"/>
<path d="M4280 6350 c0 -5 5 -10 11 -10 5 0 7 5 4 10 -3 6 -8 10 -11 10 -2 0
-4 -4 -4 -10z"/>
<path d="M5969 6344 c15 -11 26 -13 33 -6 6 6 6 12 -3 17 -8 5 -10 4 -5 -3 4
-7 3 -12 -3 -12 -5 0 -13 5 -16 10 -3 6 -11 10 -18 10 -6 0 -1 -7 12 -16z"/>
<path d="M3880 6335 c-7 -9 -11 -17 -9 -20 3 -2 10 5 17 15 14 24 10 26 -8 5z"/>
<path d="M4165 6340 c-3 -6 1 -7 9 -4 18 7 21 14 7 14 -6 0 -13 -4 -16 -10z"/>
<path d="M5761 6280 c-1 -41 -10 -118 -21 -170 -20 -95 -17 -118 10 -99 13 9
12 10 -2 5 -21 -6 -21 -7 -2 69 8 33 17 87 20 120 3 33 7 65 9 71 2 6 0 26 -5
45 -6 28 -8 20 -9 -41z"/>
<path d="M4246 6327 c3 -10 9 -15 12 -12 3 3 0 11 -7 18 -10 9 -11 8 -5 -6z"/>
<path d="M3900 6315 c0 -8 4 -15 10 -15 5 0 7 7 4 15 -4 8 -8 15 -10 15 -2 0
-4 -7 -4 -15z"/>
<path d="M3960 6320 c0 -5 5 -10 11 -10 5 0 7 5 4 10 -3 6 -8 10 -11 10 -2 0
-4 -4 -4 -10z"/>
<path d="M4014 6316 c11 -9 27 -16 35 -15 14 0 14 1 1 6 -8 3 -24 10 -35 15
-20 9 -20 9 -1 -6z"/>
<path d="M4180 6322 c0 -5 7 -9 15 -9 8 0 12 4 9 9 -3 4 -9 8 -15 8 -5 0 -9
-4 -9 -8z"/>
<path d="M5853 6323 c4 -3 1 -13 -6 -22 -11 -14 -10 -14 6 -2 20 15 22 31 5
31 -6 0 -8 -3 -5 -7z"/>
<path d="M6070 6320 c-9 -6 -10 -10 -3 -10 6 0 15 5 18 10 8 12 4 12 -15 0z"/>
<path d="M5892 6309 c19 -11 21 -58 3 -72 -6 -5 -4 -7 5 -4 8 2 15 13 16 24 1
12 4 29 7 38 4 9 3 13 -2 10 -5 -3 -12 -1 -16 5 -3 5 -12 10 -18 10 -7 0 -4
-5 5 -11z"/>
<path d="M5990 6314 c0 -5 7 -18 15 -28 8 -11 15 -16 15 -10 0 5 -7 18 -15 28
-8 11 -15 16 -15 10z"/>
<path d="M4217 6289 c-4 -13 -10 -18 -18 -13 -8 4 -10 3 -5 -5 6 -8 12 -9 20
-2 7 6 15 8 19 5 3 -3 3 3 0 15 -7 26 -9 26 -16 0z"/>
<path d="M5936 6294 c-8 -21 1 -34 22 -33 15 1 15 2 -1 6 -12 3 -16 10 -12 24
8 23 0 26 -9 3z"/>
<path d="M6102 6253 c-1 -35 -6 -63 -11 -63 -4 0 -6 -11 -4 -25 3 -13 0 -38
-5 -55 -6 -16 -7 -30 -2 -30 12 0 32 129 27 186 -3 46 -3 46 -5 -13z"/>
<path d="M4296 6287 c3 -10 9 -15 12 -12 3 3 0 11 -7 18 -10 9 -11 8 -5 -6z"/>
<path d="M6055 6289 c-4 -6 -5 -12 -2 -15 2 -3 7 2 10 11 7 17 1 20 -8 4z"/>
<path d="M3859 6273 c6 -12 31 -34 56 -50 94 -58 122 -81 138 -114 9 -19 17
-28 17 -20 0 11 5 9 22 -5 l22 -19 -20 26 c-10 15 -23 24 -28 21 -5 -3 -6 2
-3 12 4 9 3 15 -1 12 -5 -3 -16 4 -25 14 -8 10 -12 20 -7 22 5 2 2 12 -7 23
-15 20 -15 20 -8 -2 6 -23 6 -23 -24 -6 -16 10 -28 20 -26 24 2 3 -1 6 -8 6
-21 0 -67 35 -60 46 4 6 1 7 -6 3 -7 -5 -19 0 -27 10 -14 18 -14 18 -5 -3z"/>
<path d="M3913 6275 c0 -8 3 -13 5 -10 3 3 15 -3 26 -12 15 -13 14 -10 -3 10
-29 32 -28 31 -28 12z"/>
<path d="M5980 6280 c0 -5 5 -10 11 -10 5 0 7 5 4 10 -3 6 -8 10 -11 10 -2 0
-4 -4 -4 -10z"/>
<path d="M4275 6270 c-3 -5 -1 -10 4 -10 6 0 11 5 11 10 0 6 -2 10 -4 10 -3 0
-8 -4 -11 -10z"/>
<path d="M3983 6263 c9 -2 23 -2 30 0 6 3 -1 5 -18 5 -16 0 -22 -2 -12 -5z"/>
<path d="M5817 6263 c-10 -10 -8 -23 4 -23 5 0 8 4 5 9 -4 5 0 12 6 14 7 3 8
6 2 6 -6 1 -14 -2 -17 -6z"/>
<path d="M5862 6256 c7 -8 17 -12 22 -9 4 3 2 9 -5 14 -22 13 -31 11 -17 -5z"/>
<path d="M4175 6251 c-4 -7 -1 -10 7 -9 8 2 13 -6 12 -19 -2 -30 2 -29 20 8
11 21 11 28 2 20 -9 -7 -16 -7 -23 0 -8 8 -13 7 -18 0z"/>
<path d="M4010 6241 c0 -6 4 -12 8 -15 5 -3 9 1 9 9 0 8 -4 15 -9 15 -4 0 -8
-4 -8 -9z"/>
<path d="M6050 6235 c-7 -9 -8 -15 -2 -15 5 0 12 7 16 15 3 8 4 15 2 15 -2 0
-9 -7 -16 -15z"/>
<path d="M3724 6174 c-8 -45 4 -223 17 -244 7 -11 9 -3 4 25 -12 82 -17 194
-11 220 7 28 26 26 21 -3 -1 -9 0 -11 2 -4 3 6 12 12 21 12 15 0 15 -2 2 -11
-13 -9 -12 -10 3 -5 30 10 133 -66 120 -88 -3 -6 -3 -8 2 -4 8 7 45 -28 45
-42 0 -5 7 -11 16 -14 21 -8 -18 47 -70 97 -33 32 -141 97 -160 97 -3 0 -8
-16 -12 -36z"/>
<path d="M4037 6199 c7 -7 15 -10 18 -7 3 3 -2 9 -12 12 -14 6 -15 5 -6 -5z"/>
<path d="M4423 6181 c-73 -35 -147 -109 -203 -201 -43 -71 -93 -196 -86 -214
2 -6 7 4 11 21 4 19 12 30 18 26 6 -3 7 -1 3 5 -8 13 22 93 40 108 8 6 11 14
8 17 -3 3 2 17 12 32 16 25 19 26 25 9 7 -18 8 -18 9 1 1 19 2 19 14 3 7 -10
16 -15 20 -11 4 4 12 1 17 -7 8 -11 9 -8 5 13 -7 29 4 36 23 13 7 -8 21 -13
31 -11 12 2 26 -5 35 -18 8 -12 15 -18 15 -13 0 4 -9 19 -20 33 -19 25 -19 27
-3 45 16 18 16 18 0 12 -16 -6 -21 -16 -18 -41 2 -15 -19 -11 -48 9 -26 19
-46 14 -37 -8 6 -16 -10 -19 -19 -4 -4 6 -11 8 -16 5 -14 -9 -11 3 7 30 9 14
21 22 27 18 5 -3 7 -2 4 4 -4 6 4 19 16 31 29 27 28 27 57 13 l25 -12 -24 20
c-21 19 -20 26 2 22 4 0 7 4 7 9 0 6 24 22 53 35 l52 25 3 -68 c4 -83 -4 -131
-24 -139 -11 -4 -12 -9 -3 -19 9 -11 8 -18 -1 -29 -8 -9 -9 -15 -2 -15 7 0 5
-16 -5 -45 -9 -27 -19 -42 -25 -38 -7 3 -8 1 -4 -5 9 -15 -36 -93 -50 -88 -7
3 -10 -3 -7 -12 2 -10 -13 -34 -37 -60 -34 -35 -44 -41 -56 -31 -12 10 -13 9
-7 -6 5 -15 3 -17 -11 -12 -9 4 -15 3 -12 -1 3 -5 -15 -21 -40 -37 -24 -15
-42 -30 -40 -32 3 -3 -4 -25 -15 -49 -10 -25 -15 -43 -10 -40 4 3 16 26 25 50
14 38 27 51 74 78 162 92 262 294 262 529 0 43 -3 79 -7 79 -5 0 -36 -13 -70
-29z"/>
<path d="M5940 6180 c-6 -11 -9 -20 -8 -20 2 0 11 9 21 20 9 11 13 20 7 20 -5
0 -14 -9 -20 -20z"/>
<path d="M6055 6190 c3 -5 8 -10 11 -10 2 0 4 5 4 10 0 6 -5 10 -11 10 -5 0
-7 -4 -4 -10z"/>
<path d="M4065 6181 c-3 -5 -2 -12 3 -15 5 -3 9 1 9 9 0 17 -3 19 -12 6z"/>
<path d="M6035 6170 c10 -11 20 -18 23 -16 5 6 -23 36 -34 36 -4 0 1 -9 11
-20z"/>
<path d="M5875 6170 c3 -5 8 -10 11 -10 2 0 4 5 4 10 0 6 -5 10 -11 10 -5 0
-7 -4 -4 -10z"/>
<path d="M4445 6149 c-4 -6 -5 -12 -2 -15 2 -3 7 2 10 11 7 17 1 20 -8 4z"/>
<path d="M6020 6151 c0 -10 19 -25 25 -20 1 2 -3 10 -11 17 -8 7 -14 8 -14 3z"/>
<path d="M5815 6141 c-6 -11 9 -23 19 -14 9 9 7 23 -3 23 -6 0 -12 -4 -16 -9z"/>
<path d="M3792 6133 c2 -6 -6 -19 -17 -28 -11 -9 -14 -14 -7 -10 7 4 19 2 26
-4 10 -8 13 -5 12 14 -1 13 -5 28 -10 32 -4 4 -6 3 -4 -4z"/>
<path d="M5773 6128 c0 -20 34 -41 42 -28 4 6 2 9 -4 8 -5 -2 -16 5 -24 16
-10 14 -14 15 -14 4z"/>
<path d="M3843 6108 c1 -7 -4 -12 -11 -10 -8 1 -11 -2 -7 -8 5 -8 11 -8 21 1
7 6 11 15 8 20 -8 13 -14 11 -11 -3z"/>
<path d="M5936 6107 c3 -10 9 -15 12 -12 3 3 0 11 -7 18 -10 9 -11 8 -5 -6z"/>
<path d="M5985 6110 c3 -5 8 -10 11 -10 2 0 4 5 4 10 0 6 -5 10 -11 10 -5 0
-7 -4 -4 -10z"/>
<path d="M4409 6073 c-13 -16 -12 -17 4 -4 16 13 21 21 13 21 -2 0 -10 -8 -17
-17z"/>
<path d="M5955 6079 c-4 -6 -5 -12 -2 -15 2 -3 7 2 10 11 7 17 1 20 -8 4z"/>
<path d="M3769 6078 c-5 -18 -6 -38 -1 -34 7 8 12 36 6 36 -2 0 -4 -1 -5 -2z"/>
<path d="M3875 6070 c3 -5 8 -10 11 -10 2 0 4 5 4 10 0 6 -5 10 -11 10 -5 0
-7 -4 -4 -10z"/>
<path d="M4363 6054 c0 -17 2 -22 7 -13 5 6 6 18 3 26 -8 19 -10 16 -10 -13z"/>
<path d="M4438 6069 c-10 -5 -18 -15 -18 -20 0 -6 7 -3 16 5 8 9 20 14 25 11
5 -4 9 -1 9 4 0 14 -10 13 -32 0z"/>
<path d="M5795 6070 c3 -5 -2 -11 -11 -14 -19 -7 -9 -26 14 -25 14 0 14 2 -2
8 -17 7 -17 8 -3 14 9 3 25 4 37 2 11 -2 18 0 15 4 -2 5 -16 11 -30 13 -13 3
-22 2 -20 -2z"/>
<path d="M5918 6073 c7 -3 16 -2 19 1 4 3 -2 6 -13 5 -11 0 -14 -3 -6 -6z"/>
<path d="M4071 6054 c0 -11 3 -14 6 -6 3 7 2 16 -1 19 -3 4 -6 -2 -5 -13z"/>
<path d="M6066 6055 c-3 -8 -1 -15 4 -15 6 0 10 7 10 15 0 8 -2 15 -4 15 -2 0
-6 -7 -10 -15z"/>
<path d="M5880 6046 c7 -7 13 -7 20 0 6 6 3 10 -10 10 -13 0 -16 -4 -10 -10z"/>
<path d="M5965 6050 c-16 -7 -17 -9 -3 -9 9 -1 20 4 23 9 7 11 7 11 -20 0z"/>
<path d="M6020 6045 c0 -8 4 -15 10 -15 5 0 7 7 4 15 -4 8 -8 15 -10 15 -2 0
-4 -7 -4 -15z"/>
<path d="M4446 6041 c-3 -5 1 -11 9 -14 9 -4 12 -1 8 9 -6 16 -10 17 -17 5z"/>
<path d="M3806 6031 c-4 -5 3 -7 14 -4 23 6 26 13 6 13 -8 0 -17 -4 -20 -9z"/>
<path d="M3875 6031 c-3 -5 -1 -12 5 -16 5 -3 10 1 10 9 0 18 -6 21 -15 7z"/>
<path d="M3765 6020 c-3 -6 1 -7 9 -4 18 7 21 14 7 14 -6 0 -13 -4 -16 -10z"/>
<path d="M3925 6021 c-6 -11 13 -26 22 -17 4 3 1 6 -6 6 -7 0 -9 5 -6 10 3 6
4 10 1 10 -3 0 -7 -4 -11 -9z"/>
<path d="M6044 5981 c-9 -27 -21 -48 -26 -45 -4 3 -5 -3 -1 -12 4 -11 3 -15
-5 -10 -6 3 -14 1 -18 -5 -5 -8 -3 -9 6 -4 14 9 13 4 -12 -48 -7 -15 -18 -25
-24 -23 -7 3 -11 -5 -10 -19 0 -13 4 -21 9 -18 18 11 113 221 104 230 -3 2
-13 -19 -23 -46z"/>
<path d="M5824 6006 c1 -8 5 -18 8 -22 4 -3 5 1 4 10 -1 8 -5 18 -8 22 -4 3
-5 -1 -4 -10z"/>
<path d="M5853 6005 c0 -8 4 -12 9 -9 5 3 6 10 3 15 -9 13 -12 11 -12 -6z"/>
<path d="M3790 6003 c0 -6 7 -13 15 -17 8 -3 15 -10 15 -16 0 -6 -4 -8 -10 -5
-6 4 -7 -1 -3 -11 5 -15 7 -15 16 1 7 13 4 23 -12 38 -11 12 -21 16 -21 10z"/>
<path d="M5965 6000 c3 -5 8 -10 11 -10 2 0 4 5 4 10 0 6 -5 10 -11 10 -5 0
-7 -4 -4 -10z"/>
<path d="M3879 5998 c-5 -18 -6 -38 -1 -34 7 8 12 36 6 36 -2 0 -4 -1 -5 -2z"/>
<path d="M3980 5995 c0 -3 7 -16 15 -28 30 -46 77 -203 82 -272 3 -38 9 -75
14 -81 5 -6 5 -14 1 -18 -4 -4 5 -2 21 5 28 13 30 19 16 59 -8 24 -8 24 -6 -5
1 -29 -3 -35 -22 -35 -4 0 -11 33 -13 73 -5 69 -45 204 -82 275 -15 29 -26 40
-26 27z"/>
<path d="M5691 5946 c-54 -130 -150 -243 -279 -327 -103 -68 -249 -111 -421
-125 -45 -4 -79 -9 -76 -12 10 -10 115 -7 119 3 2 6 12 5 26 -3 12 -8 19 -9
16 -4 -7 12 17 22 47 21 l22 0 -22 -9 c-23 -10 -32 -30 -12 -30 5 0 7 5 3 11
-4 7 1 9 12 7 11 -2 18 -11 16 -19 -3 -11 -1 -12 10 -1 11 11 11 14 0 21 -8 5
-14 12 -13 16 0 11 137 48 174 48 16 0 24 3 18 7 -7 4 -3 10 11 17 25 11 51 6
43 -8 -4 -5 1 -6 11 -2 15 6 15 7 0 15 -14 8 -10 14 26 38 23 16 46 26 50 24
5 -3 7 0 6 7 -2 6 3 14 11 17 8 2 11 0 7 -6 -4 -6 2 -8 16 -4 13 3 19 1 15 -5
-4 -6 0 -14 8 -17 13 -4 14 -2 5 14 -6 11 -8 26 -4 33 5 9 4 9 -7 0 -27 -26
-32 -12 -4 17 15 16 32 27 37 24 5 -3 7 -2 6 3 -1 4 6 20 16 35 14 22 22 25
40 18 16 -6 23 -5 23 5 0 7 -8 10 -19 7 -17 -4 -17 -1 4 31 13 19 27 32 32 29
5 -3 6 0 3 5 -4 6 7 38 24 72 17 34 29 66 27 72 -2 6 -14 -14 -27 -45z"/>
<path d="M5748 5987 c-10 -8 -13 -18 -9 -26 6 -9 10 -7 14 9 4 14 10 19 18 14
8 -4 10 -3 5 4 -9 14 -7 14 -28 -1z"/>
<path d="M5993 5975 c0 -7 6 -11 14 -8 7 3 13 6 13 8 0 2 -6 5 -13 8 -8 3 -14
-1 -14 -8z"/>
<path d="M5775 5959 c-11 -16 -1 -19 13 -3 7 8 8 14 3 14 -5 0 -13 -5 -16 -11z"/>
<path d="M5917 5963 c-2 -5 2 -19 9 -33 10 -18 14 -20 14 -8 0 9 -5 20 -10 23
-6 4 -8 11 -5 16 4 5 4 9 1 9 -3 0 -7 -3 -9 -7z"/>
<path d="M4247 5940 c3 -11 9 -22 13 -25 5 -3 6 4 3 15 -3 11 -9 22 -13 25 -5
3 -6 -4 -3 -15z"/>
<path d="M5828 5953 c7 -3 16 -2 19 1 4 3 -2 6 -13 5 -11 0 -14 -3 -6 -6z"/>
<path d="M3847 5929 c4 -13 8 -18 11 -10 2 7 -1 18 -6 23 -8 8 -9 4 -5 -13z"/>
<path d="M3966 5933 c-6 -14 -5 -15 5 -6 7 7 10 15 7 18 -3 3 -9 -2 -12 -12z"/>
<path d="M4306 5939 c2 -4 13 -7 24 -6 23 2 17 10 -10 12 -10 1 -17 -2 -14 -6z"/>
<path d="M4420 5941 c-8 -6 -18 -7 -22 -5 -4 3 -8 1 -8 -5 0 -19 15 -18 34 0
21 21 20 24 -4 10z"/>
<path d="M4360 5931 c0 -6 4 -13 10 -16 6 -3 7 1 4 9 -7 18 -14 21 -14 7z"/>
<path d="M5832 5935 c4 -4 0 -13 -8 -20 -15 -11 -15 -12 -1 -12 20 0 30 24 14
33 -7 4 -9 4 -5 -1z"/>
<path d="M5900 5906 c0 -8 4 -17 9 -20 5 -4 7 3 4 14 -6 23 -13 26 -13 6z"/>
<path d="M3750 5881 c30 -105 89 -188 180 -252 64 -45 95 -87 106 -144 3 -19
9 -35 13 -35 3 0 4 -25 3 -55 l-4 -55 301 0 c234 0 301 3 301 13 0 8 3 7 10
-3 7 -12 9 -10 7 7 -1 18 -4 20 -15 10 -38 -31 -91 5 -71 48 10 19 10 19 -5 1
-11 -13 -12 -24 -6 -37 14 -25 13 -26 -12 -24 -13 1 -23 7 -23 12 0 6 -4 15
-8 20 -5 4 -8 3 -7 -2 6 -27 -2 -35 -35 -35 -24 0 -35 5 -35 14 0 9 -9 14 -20
13 -12 -1 -18 -7 -16 -14 4 -9 -37 -12 -175 -13 l-180 0 2 48 c2 45 -8 90 -32
135 -5 10 -7 23 -3 30 4 7 4 9 0 5 -4 -4 -21 9 -38 27 -16 19 -39 37 -50 41
-17 5 -18 8 -7 16 11 8 10 9 -4 4 -10 -3 -26 3 -38 15 -20 20 -20 21 -3 40 17
19 18 19 44 -6 29 -27 40 -31 40 -13 0 6 -3 9 -6 5 -3 -3 -17 5 -31 19 -18 18
-28 22 -37 15 -7 -6 -16 -7 -20 -3 -4 4 -6 3 -4 -3 2 -6 -1 -10 -7 -10 -5 0
-9 4 -7 8 1 5 -2 6 -7 2 -14 -8 -45 41 -35 56 4 7 3 9 -3 6 -6 -4 -20 15 -32
42 -24 56 -27 76 -9 65 7 -4 8 -3 4 4 -4 7 -13 12 -21 12 -10 0 -12 -7 -5 -29z"/>
<path d="M3947 5891 c-4 -17 -3 -21 5 -13 5 5 8 16 6 23 -3 8 -7 3 -11 -10z"/>
<path d="M5850 5906 c0 -9 30 -14 35 -6 4 6 -3 10 -14 10 -12 0 -21 -2 -21 -4z"/>
<path d="M4403 5887 c0 -7 9 -13 19 -13 10 0 18 1 18 3 0 1 -8 7 -18 12 -13 7
-19 6 -19 -2z"/>
<path d="M3790 5887 c0 -2 11 -12 25 -21 23 -15 28 -15 47 -1 18 12 19 15 6
15 -9 0 -18 -5 -20 -12 -3 -7 -13 -5 -31 7 -15 9 -27 15 -27 12z"/>
<path d="M5764 5879 c-3 -6 -2 -15 3 -20 5 -5 9 -1 9 11 0 23 -2 24 -12 9z"/>
<path d="M5815 5879 c-4 -6 -4 -13 -1 -16 3 -4 6 -1 6 6 0 7 5 9 12 5 7 -4 8
-3 4 4 -9 15 -13 15 -21 1z"/>
<path d="M4228 5873 c7 -3 16 -2 19 1 4 3 -2 6 -13 5 -11 0 -14 -3 -6 -6z"/>
<path d="M4300 5870 c0 -5 5 -10 11 -10 5 0 7 5 4 10 -3 6 -8 10 -11 10 -2 0
-4 -4 -4 -10z"/>
<path d="M5866 5872 c6 -4 14 -17 18 -29 7 -23 26 -32 26 -13 0 6 -4 10 -9 10
-5 0 -11 9 -14 20 -3 11 -11 20 -19 20 -9 0 -9 -3 -2 -8z"/>
<path d="M3910 5860 c0 -5 5 -10 10 -10 6 0 10 5 10 10 0 6 -4 10 -10 10 -5 0
-10 -4 -10 -10z"/>
<path d="M4262 5850 c0 -14 2 -19 5 -12 2 6 2 18 0 25 -3 6 -5 1 -5 -13z"/>
<path d="M5678 5847 c-3 -19 -2 -25 4 -19 6 6 8 18 6 28 -3 14 -5 12 -10 -9z"/>
<path d="M3940 5853 c0 -6 8 -17 18 -24 16 -13 16 -13 2 6 -8 11 -16 22 -17
24 -2 2 -3 0 -3 -6z"/>
<path d="M4281 5853 c-1 -17 16 -25 25 -12 4 7 3 9 -4 5 -5 -3 -13 0 -15 6 -4
9 -6 10 -6 1z"/>
<path d="M5830 5849 c0 -5 5 -7 10 -4 6 3 10 8 10 11 0 2 -4 4 -10 4 -5 0 -10
-5 -10 -11z"/>
<path d="M3810 5833 c0 -17 4 -20 22 -15 16 4 18 7 8 10 -8 3 -18 10 -22 16
-5 6 -8 2 -8 -11z"/>
<path d="M5703 5829 c-2 -23 3 -25 10 -4 4 8 3 16 -1 19 -4 3 -9 -4 -9 -15z"/>
<path d="M4340 5830 c0 -6 -10 -15 -22 -20 -22 -8 -22 -9 4 -7 15 1 25 4 22 8
-2 4 1 9 8 11 9 3 9 6 0 12 -7 4 -12 2 -12 -4z"/>
<path d="M5770 5833 c0 -7 12 -25 26 -40 15 -15 21 -20 13 -10 -11 15 -10 20
2 29 11 8 11 9 -3 4 -10 -3 -22 2 -27 12 -6 9 -11 12 -11 5z"/>
<path d="M3930 5820 c0 -5 5 -10 11 -10 5 0 7 5 4 10 -3 6 -8 10 -11 10 -2 0
-4 -4 -4 -10z"/>
<path d="M3987 5813 c3 -7 6 -13 8 -13 2 0 5 6 8 13 3 8 -1 14 -8 14 -7 0 -11
-6 -8 -14z"/>
<path d="M4370 5826 c0 -2 6 -9 13 -15 10 -8 14 -7 14 4 0 8 -6 15 -14 15 -7
0 -13 -2 -13 -4z"/>
<path d="M5750 5821 c0 -6 4 -13 10 -16 6 -3 7 1 4 9 -7 18 -14 21 -14 7z"/>
<path d="M5865 5820 c-4 -6 -11 -7 -17 -4 -7 4 -8 2 -4 -4 4 -7 0 -12 -10 -12
-10 0 -15 -3 -11 -6 9 -9 45 5 51 21 6 17 0 20 -9 5z"/>
<path d="M3906 5803 c-6 -14 -5 -15 5 -6 7 7 10 15 7 18 -3 3 -9 -2 -12 -12z"/>
<path d="M4280 5801 c0 -6 4 -13 10 -16 6 -3 7 1 4 9 -7 18 -14 21 -14 7z"/>
<path d="M5908 5803 c6 -2 9 -10 6 -15 -4 -7 -2 -8 5 -4 13 9 5 26 -12 25 -9
0 -8 -2 1 -6z"/>
<path d="M3867 5789 c7 -7 15 -10 18 -7 3 3 -2 9 -12 12 -14 6 -15 5 -6 -5z"/>
<path d="M4011 5784 c0 -11 3 -14 6 -6 3 7 2 16 -1 19 -3 4 -6 -2 -5 -13z"/>
<path d="M4215 5790 c-3 -5 -1 -10 4 -10 6 0 11 5 11 10 0 6 -2 10 -4 10 -3 0
-8 -4 -11 -10z"/>
<path d="M5660 5791 c0 -6 4 -13 10 -16 6 -3 7 1 4 9 -7 18 -14 21 -14 7z"/>
<path d="M3960 5786 c0 -2 9 -6 20 -9 11 -3 18 -1 14 4 -5 9 -34 13 -34 5z"/>
<path d="M4333 5776 c3 -7 0 -20 -6 -27 -10 -11 -9 -11 5 0 15 11 15 41 1 41
-3 0 -3 -6 0 -14z"/>
<path d="M5869 5788 c-6 -21 -5 -37 2 -32 5 3 7 9 4 14 -3 4 1 11 7 13 10 4
10 6 1 6 -7 1 -13 0 -14 -1z"/>
<path d="M3830 5776 c0 -2 7 -9 15 -16 12 -10 15 -10 15 4 0 9 -7 16 -15 16
-8 0 -15 -2 -15 -4z"/>
<path d="M3937 5774 c-8 -13 20 -41 30 -30 3 3 1 6 -5 6 -6 0 -12 8 -14 18 -2
11 -6 13 -11 6z"/>
<path d="M4167 5773 c-4 -3 -7 -11 -7 -17 0 -6 5 -5 12 2 6 6 9 14 7 17 -3 3
-9 2 -12 -2z"/>
<path d="M5917 5748 c-32 -42 -82 -94 -131 -136 -30 -26 -41 -31 -47 -20 -7
10 -9 10 -10 -2 -1 -8 -1 -18 0 -22 1 -8 -12 -11 -39 -9 -12 0 -12 -1 -1 -6
11 -4 11 -7 0 -14 -9 -6 -10 -9 -2 -9 21 0 163 121 214 182 27 33 49 61 49 64
0 10 -9 2 -33 -28z"/>
<path d="M4206 5758 c3 -4 -1 -8 -8 -8 -8 0 -6 -5 5 -11 10 -6 21 -8 24 -5 4
3 0 6 -7 6 -10 0 -8 4 4 13 16 12 16 13 -3 13 -11 0 -17 -4 -15 -8z"/>
<path d="M4260 5766 c0 -2 9 -6 20 -9 11 -3 18 -1 14 4 -5 9 -34 13 -34 5z"/>
<path d="M5750 5760 c0 -5 5 -10 11 -10 5 0 7 5 4 10 -3 6 -8 10 -11 10 -2 0
-4 -4 -4 -10z"/>
<path d="M5836 5753 c-6 -14 -5 -15 5 -6 7 7 10 15 7 18 -3 3 -9 -2 -12 -12z"/>
<path d="M3987 5749 c7 -7 15 -10 18 -7 3 3 -2 9 -12 12 -14 6 -15 5 -6 -5z"/>
<path d="M4026 5747 c3 -10 9 -15 12 -12 3 3 0 11 -7 18 -10 9 -11 8 -5 -6z"/>
<path d="M5606 5752 c-2 -4 -1 -14 4 -22 7 -11 9 -9 7 8 -1 24 -3 26 -11 14z"/>
<path d="M5650 5741 c-13 -25 -13 -41 0 -21 8 12 10 11 10 -7 0 -12 4 -24 9
-28 6 -3 6 7 0 27 -11 41 -11 41 3 32 7 -4 8 -3 4 4 -10 16 -14 15 -26 -7z"/>
<path d="M5885 5750 c-3 -5 -2 -10 4 -10 5 0 13 5 16 10 3 6 2 10 -4 10 -5 0
-13 -4 -16 -10z"/>
<path d="M4127 5743 c-4 -3 -7 -17 -7 -30 0 -16 6 -23 18 -22 10 0 12 3 5 6
-8 3 -11 14 -7 29 6 24 3 30 -9 17z"/>
<path d="M5712 5737 c-8 -10 -6 -13 11 -14 12 0 16 1 9 4 -6 3 -10 9 -6 14 8
14 -2 11 -14 -4z"/>
<path d="M5760 5723 c0 -11 3 -14 8 -7 4 6 14 14 22 17 10 4 8 6 -7 6 -16 1
-23 -5 -23 -16z"/>
<path d="M3948 5723 c7 -3 16 -2 19 1 4 3 -2 6 -13 5 -11 0 -14 -3 -6 -6z"/>
<path d="M4242 5704 c-1 -12 4 -26 10 -30 8 -5 9 -2 4 11 -4 10 -2 21 4 25 8
5 7 9 -2 12 -9 4 -14 -2 -16 -18z"/>
<path d="M4033 5713 c-22 -8 -15 -33 10 -32 17 1 18 2 4 6 -14 4 -16 8 -6 19
12 15 11 15 -8 7z"/>
<path d="M4190 5716 c0 -2 7 -7 16 -10 8 -3 12 -2 9 4 -6 10 -25 14 -25 6z"/>
<path d="M4284 5698 c-11 -12 -13 -18 -5 -13 11 6 13 4 8 -9 -4 -11 -3 -15 4
-11 6 4 8 13 5 20 -3 8 3 15 12 17 11 2 13 6 6 10 -6 4 -20 -2 -30 -14z"/>
<path d="M5580 5705 c-7 -8 -17 -12 -23 -8 -6 4 -7 1 -3 -6 6 -9 13 -8 27 5
10 9 19 19 19 21 0 7 -8 2 -20 -12z"/>
<path d="M5790 5699 c0 -5 5 -7 10 -4 6 3 10 8 10 11 0 2 -4 4 -10 4 -5 0 -10
-5 -10 -11z"/>
<path d="M3990 5690 c-9 -6 -10 -10 -3 -10 6 0 15 5 18 10 8 12 4 12 -15 0z"/>
<path d="M5594 5689 c-5 -8 -3 -9 5 -5 8 6 11 2 9 -10 -2 -12 4 -19 17 -21 11
-1 14 0 8 3 -7 3 -13 12 -13 19 0 19 -17 28 -26 14z"/>
<path d="M5737 5678 c-4 -12 -4 -24 -2 -27 3 -2 5 1 5 8 0 7 4 10 9 7 5 -4 7
3 4 14 -7 25 -9 25 -16 -2z"/>
<path d="M3916 5682 c-3 -5 1 -9 9 -9 8 0 12 4 9 9 -3 4 -7 8 -9 8 -2 0 -6 -4
-9 -8z"/>
<path d="M4156 5682 c-2 -4 -1 -14 4 -22 7 -11 9 -9 7 8 -1 24 -3 26 -11 14z"/>
<path d="M5681 5668 c-13 -20 -12 -22 1 -11 8 7 17 11 20 8 2 -3 5 2 5 10 0
21 -10 19 -26 -7z"/>
<path d="M4216 5647 c3 -10 9 -15 12 -12 3 3 0 11 -7 18 -10 9 -11 8 -5 -6z"/>
<path d="M5707 5633 c5 -15 3 -16 -8 -5 -7 6 -22 11 -33 11 -21 -1 -21 -1 -1
-6 11 -3 27 -11 35 -19 14 -11 16 -11 17 6 1 11 -2 22 -8 25 -5 4 -6 -2 -2
-12z"/>
<path d="M5605 5630 c3 -5 8 -10 11 -10 2 0 4 5 4 10 0 6 -5 10 -11 10 -5 0
-7 -4 -4 -10z"/>
<path d="M4015 5620 c-3 -5 -1 -10 4 -10 6 0 11 5 11 10 0 6 -2 10 -4 10 -3 0
-8 -4 -11 -10z"/>
<path d="M5508 5613 c7 -3 16 -2 19 1 4 3 -2 6 -13 5 -11 0 -14 -3 -6 -6z"/>
<path d="M4050 5600 c-9 -6 -10 -10 -3 -10 6 0 15 5 18 10 8 12 4 12 -15 0z"/>
<path d="M4159 5593 c-13 -16 -12 -17 4 -4 9 7 17 15 17 17 0 8 -8 3 -21 -13z"/>
<path d="M5556 5598 c3 -5 10 -6 15 -3 13 9 11 12 -6 12 -8 0 -12 -4 -9 -9z"/>
<path d="M5646 5602 c-3 -5 1 -9 9 -9 8 0 15 4 15 9 0 4 -4 8 -9 8 -6 0 -12
-4 -15 -8z"/>
<path d="M4067 5583 c-15 -14 -6 -33 16 -32 18 1 18 2 4 6 -11 3 -16 11 -13
19 6 15 3 18 -7 7z"/>
<path d="M5606 5581 c-3 -5 0 -11 7 -14 8 -3 14 1 14 9 0 16 -13 19 -21 5z"/>
<path d="M5461 5564 c0 -11 3 -14 6 -6 3 7 2 16 -1 19 -3 4 -6 -2 -5 -13z"/>
<path d="M5544 5568 c-4 -7 -4 -10 1 -6 4 4 15 2 24 -5 14 -11 14 -10 2 6 -16
20 -18 21 -27 5z"/>
<path d="M4120 5540 l-25 -21 28 12 c15 7 27 16 27 21 0 11 -1 10 -30 -12z"/>
<path d="M5355 5550 c3 -5 8 -10 11 -10 2 0 4 5 4 10 0 6 -5 10 -11 10 -5 0
-7 -4 -4 -10z"/>
<path d="M5427 5549 c7 -7 15 -10 18 -7 3 3 -2 9 -12 12 -14 6 -15 5 -6 -5z"/>
<path d="M5509 5548 c-5 -9 -5 -48 -1 -43 6 6 11 45 5 45 -2 0 -4 -1 -4 -2z"/>
<path d="M5660 5531 c0 -15 -90 -63 -106 -57 -10 4 -12 2 -8 -6 5 -7 2 -9 -9
-5 -8 3 -21 -1 -27 -9 -18 -21 -32 -17 -20 6 7 14 7 20 0 20 -5 0 -10 -6 -10
-14 0 -19 -61 -10 -77 11 -14 19 -26 14 -14 -5 4 -7 27 -19 52 -27 24 -8 32
-12 17 -10 -21 4 -26 2 -22 -9 5 -13 11 -13 47 0 81 29 187 85 187 99 0 8 -2
15 -5 15 -3 0 -5 -4 -5 -9z"/>
<path d="M4075 5521 c-3 -5 -1 -12 5 -16 5 -3 10 1 10 9 0 18 -6 21 -15 7z"/>
<path d="M5359 5517 c6 -8 7 -18 3 -22 -4 -5 -1 -5 6 -1 10 6 10 11 1 22 -6 8
-14 14 -16 14 -3 0 0 -6 6 -13z"/>
<path d="M5580 5519 c0 -5 -4 -8 -9 -4 -5 3 -12 1 -16 -5 -4 -6 4 -9 18 -8 16
1 23 7 20 15 -6 16 -13 17 -13 2z"/>
<path d="M5400 5510 c0 -5 5 -10 11 -10 5 0 7 5 4 10 -3 6 -8 10 -11 10 -2 0
-4 -4 -4 -10z"/>
<path d="M4112 5490 c0 -14 2 -19 5 -12 2 6 2 18 0 25 -3 6 -5 1 -5 -13z"/>
<path d="M5230 5501 c0 -6 4 -13 10 -16 6 -3 7 1 4 9 -7 18 -14 21 -14 7z"/>
<path d="M5179 5477 c6 -14 7 -28 3 -32 -3 -3 1 -3 10 0 13 5 16 1 15 -14 -1
-24 -7 -26 -27 -9 -8 7 -7 4 2 -6 11 -13 22 -16 35 -11 11 4 13 9 6 12 -7 2
-9 11 -6 19 3 7 -2 17 -11 20 -9 3 -16 12 -16 19 0 8 -4 17 -10 20 -7 4 -7 -2
-1 -18z"/>
<path d="M5515 5490 c-3 -6 1 -7 9 -4 18 7 21 14 7 14 -6 0 -13 -4 -16 -10z"/>
<path d="M5410 5480 c0 -5 5 -10 10 -10 6 0 10 5 10 10 0 6 -4 10 -10 10 -5 0
-10 -4 -10 -10z"/>
<path d="M4418 5472 c-148 -1 -268 -6 -268 -10 0 -9 548 -4 563 5 7 4 8 0 3
-12 -7 -18 -6 -18 13 -1 16 14 34 17 99 14 44 -2 78 1 75 5 -2 4 -53 6 -111 5
-59 -2 -227 -4 -374 -6z"/>
<path d="M5261 5468 c-1 -21 17 -34 31 -20 6 6 6 12 -3 17 -8 5 -10 4 -5 -3 4
-7 3 -12 -3 -12 -5 0 -12 8 -14 18 -4 15 -5 15 -6 0z"/>
<path d="M4387 5432 c12 -9 19 -9 21 -2 3 8 8 7 18 -1 11 -9 14 -8 14 3 0 9
-12 14 -35 13 -31 0 -33 -1 -18 -13z"/>
<path d="M4543 5435 c0 -8 4 -12 9 -9 5 3 6 10 3 15 -9 13 -12 11 -12 -6z"/>
<path d="M4601 5434 c0 -11 3 -14 6 -6 3 7 2 16 -1 19 -3 4 -6 -2 -5 -13z"/>
<path d="M4820 5443 c8 -2 25 -9 37 -15 11 -6 27 -8 35 -5 7 3 4 6 -9 6 -12 1
-25 6 -28 11 -3 6 -16 10 -28 9 -14 0 -16 -2 -7 -6z"/>
<path d="M5236 5441 c-3 -5 1 -12 10 -15 22 -8 25 -4 9 11 -8 7 -16 9 -19 4z"/>
<path d="M5393 5435 c0 -8 4 -12 9 -9 5 3 6 10 3 15 -9 13 -12 11 -12 -6z"/>
<path d="M4685 5430 c-3 -6 -11 -7 -17 -4 -7 4 -8 2 -4 -5 6 -9 11 -9 21 -1
10 8 14 7 18 -2 2 -7 7 -10 11 -7 4 3 0 12 -8 18 -10 8 -16 9 -21 1z"/>
<path d="M5130 5436 c0 -2 7 -9 15 -16 9 -7 15 -8 15 -2 0 5 -7 12 -15 16 -8
3 -15 4 -15 2z"/>
<path d="M5305 5430 c3 -5 8 -10 11 -10 2 0 4 5 4 10 0 6 -5 10 -11 10 -5 0
-7 -4 -4 -10z"/>
<path d="M4120 5419 c0 -5 5 -7 10 -4 6 3 10 8 10 11 0 2 -4 4 -10 4 -5 0 -10
-5 -10 -11z"/>
<path d="M4336 5415 c-11 -8 -15 -15 -9 -15 6 0 16 7 23 15 16 19 11 19 -14 0z"/>
<path d="M4816 5413 c-6 -14 -5 -15 5 -6 7 7 10 15 7 18 -3 3 -9 -2 -12 -12z"/>
<path d="M4145 5409 c-4 -6 -5 -12 -2 -15 2 -3 7 2 10 11 7 17 1 20 -8 4z"/>
<path d="M4290 5411 c0 -6 -9 -8 -20 -6 -11 2 -18 0 -15 -5 7 -12 38 -6 43 8
2 7 1 12 -2 12 -3 0 -6 -4 -6 -9z"/>
<path d="M5385 5404 c-40 -14 -40 -14 -5 -9 19 3 39 10 44 15 12 12 12 12 -39
-6z"/>
<path d="M4200 5395 c14 -8 30 -14 35 -14 6 0 -1 6 -15 14 -14 8 -29 14 -35
14 -5 0 1 -6 15 -14z"/>
<path d="M4621 5393 c7 -12 15 -20 18 -17 3 2 -3 12 -13 22 -17 16 -18 16 -5
-5z"/>
<path d="M5015 5400 c-3 -5 -1 -10 4 -10 6 0 11 5 11 10 0 6 -2 10 -4 10 -3 0
-8 -4 -11 -10z"/>
<path d="M5074 5402 c7 -11 -6 -17 -27 -13 -5 1 -6 -3 -3 -8 7 -11 46 -3 46
10 0 4 -5 11 -12 15 -7 4 -8 3 -4 -4z"/>
<path d="M4349 5383 c-13 -16 -12 -17 4 -4 9 7 17 15 17 17 0 8 -8 3 -21 -13z"/>
<path d="M4590 5391 c0 -6 4 -13 10 -16 6 -3 7 1 4 9 -7 18 -14 21 -14 7z"/>
<path d="M4681 5384 c0 -11 3 -14 6 -6 3 7 2 16 -1 19 -3 4 -6 -2 -5 -13z"/>
<path d="M4850 5396 c0 -3 9 -10 20 -16 11 -6 20 -8 20 -6 0 3 -9 10 -20 16
-11 6 -20 8 -20 6z"/>
<path d="M4921 5391 c-10 -7 -7 -9 12 -8 14 1 23 5 20 10 -6 9 -15 9 -32 -2z"/>
<path d="M5125 5390 c-3 -5 6 -7 20 -5 14 1 25 -1 25 -5 0 -14 -66 -20 -191
-20 -218 2 -302 0 -296 -6 3 -4 100 -6 214 -5 200 2 339 12 413 30 53 13 2 13
-64 -1 -48 -9 -59 -9 -67 3 -9 15 -47 21 -54 9z"/>
<path d="M4083 5375 c0 -8 4 -12 9 -9 5 3 6 10 3 15 -9 13 -12 11 -12 -6z"/>
<path d="M4140 5376 c0 -2 7 -7 16 -10 8 -3 12 -2 9 4 -6 10 -25 14 -25 6z"/>
<path d="M4075 4900 c-167 -34 -286 -133 -349 -292 -26 -64 -30 -89 -34 -203
-5 -151 10 -234 59 -325 102 -191 315 -272 590 -224 64 11 164 46 177 62 8 11
12 68 12 203 0 154 3 189 15 199 8 7 15 28 15 46 l0 34 -97 -4 c-54 -3 -119
-5 -145 -5 -57 -1 -65 -22 -20 -57 l27 -22 3 -165 3 -164 -41 -17 c-88 -35
-225 -8 -287 56 -70 72 -98 193 -91 391 4 103 10 147 28 200 43 127 130 193
252 191 102 -1 170 -42 224 -133 10 -17 26 -31 36 -31 16 0 18 11 18 115 l0
114 -37 10 c-95 25 -134 30 -223 30 -52 -1 -113 -5 -135 -9z"/>
<path d="M1963 4893 c-171 -3 -173 -4 -173 -26 0 -13 14 -33 35 -50 l35 -28 0
-414 0 -414 -35 -28 c-21 -17 -35 -37 -35 -50 l0 -23 253 0 c265 0 336 9 415
49 94 48 150 158 139 273 -9 104 -71 178 -174 210 -48 15 -54 23 -20 32 35 8
118 85 133 123 17 40 18 128 2 174 -19 58 -63 104 -125 132 -58 26 -186 49
-246 45 -18 -1 -110 -4 -204 -5z m295 -113 c53 -24 72 -64 72 -156 0 -128 -51
-174 -193 -174 l-77 0 0 175 0 175 78 0 c55 0 89 -6 120 -20z m38 -456 c67
-32 97 -112 83 -223 -6 -41 -14 -61 -40 -87 -41 -43 -81 -54 -191 -54 l-88 0
0 190 0 190 101 0 c72 0 111 -5 135 -16z"/>
<path d="M6073 4893 c-149 -3 -172 -6 -178 -20 -4 -12 5 -27 32 -49 l38 -32 0
-417 0 -417 -32 -27 c-19 -16 -33 -37 -33 -49 0 -22 2 -22 170 -22 l170 0 0
25 c0 17 -9 29 -29 39 -16 9 -31 23 -35 31 -3 9 -6 84 -6 166 l0 149 98 0
c148 0 232 28 310 103 54 52 82 125 82 212 0 114 -39 196 -119 247 -90 57
-168 67 -468 61z m305 -120 c52 -39 67 -78 67 -183 0 -76 -4 -103 -20 -134
-33 -65 -63 -80 -166 -84 l-89 -4 0 217 0 217 90 -4 c71 -3 96 -9 118 -25z"/>
<path d="M7663 4893 l-81 -4 -6 -47 c-3 -26 -8 -82 -11 -124 -6 -73 -5 -78 13
-78 12 0 35 20 58 52 49 66 88 88 164 95 l60 6 0 -416 0 -416 -36 -29 c-23
-19 -35 -37 -32 -48 3 -18 15 -19 172 -19 125 0 170 3 173 12 3 7 -12 29 -31
49 l-36 37 0 414 0 413 36 0 c49 0 115 -18 139 -38 12 -9 35 -38 53 -64 22
-31 40 -48 54 -48 20 0 20 3 13 123 -4 73 -12 125 -19 129 -11 7 -513 8 -683
1z"/>
<path d="M3000 4867 c0 -14 7 -30 15 -37 8 -7 15 -21 15 -31 0 -11 -59 -187
-131 -392 -72 -204 -138 -391 -146 -414 -10 -29 -26 -49 -49 -64 -23 -14 -34
-28 -34 -45 l0 -24 135 0 c135 0 135 0 135 23 0 13 -11 33 -25 45 -32 28 -32
59 1 162 l25 80 166 -2 166 -3 29 -85 c15 -46 28 -92 28 -101 0 -10 -13 -30
-30 -46 -16 -15 -30 -38 -30 -50 l0 -23 180 0 180 0 0 24 c0 17 -10 30 -34 44
-34 20 -37 27 -188 489 l-154 468 -127 3 -127 3 0 -24z m174 -391 c31 -98 55
-180 54 -182 -3 -2 -185 -6 -229 -5 -13 1 -5 36 45 196 33 107 64 189 67 182
4 -7 32 -92 63 -191z"/>
<path d="M4750 4873 c0 -9 16 -31 35 -49 l35 -32 0 -412 0 -413 -36 -33 c-20
-20 -34 -41 -32 -52 3 -15 21 -17 171 -20 166 -2 167 -2 167 20 0 12 -15 36
-35 54 l-35 32 0 186 0 186 195 0 195 0 0 -186 0 -186 -35 -32 c-19 -18 -35
-42 -35 -54 0 -22 2 -22 170 -22 168 0 170 0 170 22 0 12 -16 36 -35 54 l-36
32 3 417 3 416 33 27 c18 15 32 35 32 45 0 15 -15 17 -170 17 -155 0 -170 -2
-170 -17 0 -10 14 -30 32 -45 l33 -27 3 -170 3 -171 -63 -1 c-88 -1 -129 -1
-235 0 l-93 1 0 164 c0 163 0 163 26 190 15 14 31 26 35 26 5 0 9 11 9 25 l0
25 -170 0 c-152 0 -170 -2 -170 -17z"/>
<path d="M6960 4866 c0 -13 7 -26 15 -30 25 -9 17 -56 -31 -192 -25 -71 -87
-248 -139 -394 -51 -146 -96 -273 -100 -282 -4 -10 -22 -27 -41 -39 -24 -14
-34 -28 -34 -45 l0 -24 135 0 135 0 0 25 c0 15 -9 31 -25 41 -33 22 -33 65 1
166 l26 78 168 0 169 0 32 -100 33 -100 -32 -33 c-18 -18 -32 -43 -32 -55 0
-22 1 -22 180 -22 l180 0 0 23 c-1 14 -14 31 -38 48 -26 18 -42 39 -54 75 -9
27 -78 237 -153 467 l-137 417 -129 0 -129 0 0 -24z m175 -372 c33 -103 61
-192 63 -198 3 -12 -246 -13 -250 -1 -3 10 116 385 122 385 3 0 32 -84 65
-186z"/>
<path d="M4575 3523 c-209 -75 -314 -246 -315 -514 0 -318 179 -519 464 -519
151 0 261 44 349 140 56 61 88 124 113 219 23 94 15 312 -15 396 -46 127 -134
221 -248 266 -81 31 -274 38 -348 12z m261 -104 c50 -24 96 -87 120 -164 22
-67 30 -315 15 -415 -24 -154 -94 -237 -209 -247 -132 -12 -212 44 -255 181
-19 62 -22 93 -22 236 1 180 14 258 58 327 49 77 93 101 186 102 46 1 77 -5
107 -20z"/>
<path d="M5697 3521 c-214 -71 -329 -274 -313 -551 13 -221 101 -366 266 -443
54 -26 81 -31 161 -35 53 -2 120 1 148 7 157 34 276 140 332 297 26 71 38 300
21 381 -34 155 -109 255 -239 320 -73 36 -80 37 -197 40 -98 3 -132 -1 -179
-16z m260 -102 c53 -25 83 -64 113 -144 19 -49 23 -87 28 -211 7 -216 -18
-335 -86 -408 -77 -82 -230 -88 -310 -13 -78 72 -118 282 -93 487 16 126 25
159 64 217 60 89 183 121 284 72z"/>
<path d="M2578 3523 c-93 -4 -98 -15 -38 -72 l40 -38 0 -402 0 -402 -25 -24
c-13 -14 -29 -25 -35 -25 -5 0 -10 -13 -10 -30 l0 -30 243 0 c244 1 319 9 397
42 89 38 149 127 158 235 10 133 -56 221 -202 267 -15 5 -8 12 33 32 93 47
140 133 128 235 -13 110 -82 176 -212 204 -67 14 -260 17 -477 8z m413 -116
c46 -31 59 -61 59 -140 0 -133 -48 -176 -192 -177 l-78 0 0 170 0 170 89 0
c75 0 93 -3 122 -23z m34 -447 c48 -30 68 -80 67 -167 -1 -142 -63 -192 -239
-193 l-73 0 0 194 0 195 106 -4 c84 -4 112 -8 139 -25z"/>
<path d="M3470 3501 c0 -10 16 -31 35 -45 l35 -27 0 -415 c0 -453 4 -414 -53
-461 -9 -7 -13 -21 -10 -33 5 -20 12 -20 333 -20 l328 0 5 53 c4 28 9 96 13
150 l6 97 -23 0 c-19 0 -28 -9 -42 -43 -45 -109 -108 -145 -262 -148 l-90 -2
0 407 0 408 32 28 c17 16 33 37 35 47 3 17 -9 18 -169 21 -164 2 -173 2 -173
-17z"/>
<path d="M6503 3503 c-4 -11 4 -25 28 -45 32 -27 34 -32 32 -86 -5 -157 -54
-755 -63 -772 -5 -10 -22 -25 -38 -32 -19 -9 -27 -21 -27 -38 l0 -25 140 0
c127 0 140 2 143 18 2 12 -12 33 -37 56 -30 28 -41 46 -41 67 0 16 7 155 15
309 8 154 15 289 15 300 1 31 9 12 109 -250 198 -519 179 -475 212 -475 23 0
32 7 44 33 28 61 265 699 266 716 1 9 5 0 9 -19 4 -19 14 -174 20 -345 l13
-309 -37 -32 c-24 -20 -36 -39 -34 -51 3 -16 18 -18 169 -21 152 -2 167 -1
174 15 4 13 -4 27 -31 50 l-38 31 -12 204 c-40 665 -40 631 13 659 14 8 23 22
23 36 l0 23 -144 0 -145 0 -118 -300 c-65 -165 -120 -300 -123 -300 -3 0 -45
103 -94 228 -49 125 -102 260 -118 300 l-30 72 -144 0 c-126 0 -145 -2 -151
-17z"/>
<path d="M3043 2069 c-42 -12 -63 -44 -63 -95 0 -50 22 -72 98 -100 26 -9 56
-25 67 -36 47 -44 -43 -76 -121 -43 -36 15 -39 15 -51 -1 -18 -24 -16 -31 10
-48 36 -24 108 -36 152 -26 52 12 95 58 95 104 0 49 -31 81 -110 111 -77 30
-92 55 -44 77 21 10 35 9 76 -6 53 -19 72 -12 65 24 -6 33 -113 58 -174 39z"/>
<path d="M2229 2065 c-10 -43 -4 -50 49 -53 l52 -3 0 -145 0 -144 35 0 35 0 0
145 0 145 55 0 c54 0 55 0 55 30 l0 30 -140 0 c-77 0 -140 -2 -141 -5z"/>
<path d="M2677 2062 c-4 -5 -75 -181 -134 -329 -4 -9 7 -13 35 -13 35 0 40 3
45 28 10 44 18 47 95 44 73 -4 74 -4 88 -38 12 -30 19 -34 50 -34 30 0 35 3
30 18 -4 9 -35 88 -69 174 l-62 158 -37 0 c-20 0 -39 -3 -41 -8z m67 -141 c14
-36 26 -66 26 -68 0 -2 -25 -3 -55 -3 -30 0 -55 2 -55 5 0 9 53 136 55 133 2
-2 15 -32 29 -67z"/>
<path d="M3310 2040 c0 -29 1 -30 50 -30 l50 0 0 -145 0 -145 35 0 35 0 0 144
0 145 53 3 c48 3 52 5 52 28 l0 25 -137 3 -138 3 0 -31z"/>
<path d="M3690 1895 l0 -175 120 0 120 0 0 30 0 29 -82 3 -83 3 -3 43 -3 42
75 0 76 0 0 30 0 30 -75 0 -75 0 0 40 0 40 80 0 80 0 0 30 0 30 -115 0 -115 0
0 -175z"/>
<path d="M4220 2040 c0 -29 1 -30 50 -30 l50 0 0 -145 0 -145 35 0 35 0 0 145
0 145 49 0 c51 0 62 9 53 43 -4 15 -19 17 -138 17 l-134 0 0 -30z"/>
<path d="M4620 2068 c0 -2 -2 -81 -3 -176 l-2 -172 38 0 37 0 0 78 0 77 75 1
c84 1 78 10 75 -93 l-1 -63 38 0 38 0 -3 175 -3 175 -34 0 -35 0 0 -65 0 -65
-77 0 -78 0 3 65 4 65 -36 0 c-20 0 -36 -1 -36 -2z"/>
<path d="M5070 1895 l0 -175 120 0 120 0 0 30 0 29 -82 3 -83 3 -3 43 -3 42
75 0 76 0 0 30 0 30 -75 0 -75 0 0 40 0 40 80 0 80 0 0 30 0 30 -115 0 -115 0
0 -175z"/>
<path d="M5630 1895 l0 -175 35 0 35 0 0 64 0 64 71 4 c63 3 74 7 95 31 46 53
24 154 -37 176 -18 6 -70 11 -115 11 l-84 0 0 -175z m174 99 c19 -18 21 -55 4
-72 -7 -7 -34 -12 -60 -12 l-48 0 0 50 0 50 44 0 c27 0 51 -6 60 -16z"/>
<path d="M6018 2063 c-2 -5 -3 -62 -3 -128 1 -187 36 -225 193 -217 21 1 45
14 70 36 l37 34 3 141 4 141 -36 0 -36 0 0 -119 c0 -105 -2 -121 -21 -145 -26
-33 -88 -37 -119 -6 -18 18 -20 33 -20 145 l0 125 -34 0 c-19 0 -36 -3 -38 -7z"/>
<path d="M6470 1895 l0 -175 35 0 35 0 0 70 c0 66 1 70 23 70 16 0 36 -18 72
-67 42 -57 55 -69 83 -71 17 -2 32 1 32 6 0 5 -20 36 -45 68 -46 59 -53 74
-35 74 6 0 22 11 35 25 47 46 25 143 -36 164 -18 6 -70 11 -115 11 l-84 0 0
-175z m174 99 c38 -37 1 -84 -66 -84 l-38 0 0 50 0 50 44 0 c27 0 51 -6 60
-16z"/>
<path d="M6880 1895 l0 -175 35 0 35 0 0 175 0 175 -35 0 -35 0 0 -175z"/>
<path d="M7077 2064 c-4 -4 -7 -18 -7 -31 0 -21 4 -23 55 -23 l55 0 0 -145 0
-145 35 0 35 0 0 144 0 145 53 3 c48 3 52 5 52 28 l0 25 -136 3 c-74 1 -138
-1 -142 -4z"/>
<path d="M7430 2065 c0 -3 27 -48 60 -101 59 -94 60 -96 60 -170 l0 -74 35 0
35 0 0 68 c0 66 2 71 64 172 l64 105 -36 3 c-20 2 -38 0 -39 -5 -2 -4 -22 -37
-44 -72 l-41 -64 -18 29 c-73 119 -68 114 -105 114 -19 0 -35 -2 -35 -5z"/>
<path d="M3290 1459 c-63 -25 -103 -89 -103 -164 0 -93 45 -151 134 -175 45
-12 126 9 157 42 108 116 34 309 -118 307 -25 0 -56 -5 -70 -10z m134 -79 c69
-83 27 -204 -72 -204 -26 0 -41 8 -63 32 -25 27 -29 41 -29 88 0 48 4 59 29
85 42 41 99 41 135 -1z"/>
<path d="M4676 1462 c-3 -4 -25 -60 -49 -123 -25 -63 -54 -138 -66 -167 l-21
-53 37 3 c32 3 38 7 48 38 7 19 15 34 18 33 4 -2 38 -3 76 -3 l70 0 12 -35
c12 -31 17 -35 50 -35 l37 0 -68 173 -67 172 -36 3 c-19 2 -38 -1 -41 -6z m41
-210 c-27 -2 -51 -1 -53 1 -2 2 6 28 17 58 11 30 22 61 25 69 3 9 17 -14 33
-55 l27 -70 -49 -3z"/>
<path d="M5050 1448 c-54 -28 -90 -90 -90 -155 0 -124 101 -200 223 -168 72
18 97 52 97 128 l0 57 -66 0 c-62 0 -65 -1 -62 -22 2 -18 11 -24 36 -26 24 -3
32 -8 32 -23 0 -28 -44 -69 -74 -69 -91 0 -143 95 -101 185 28 57 108 74 160
33 27 -21 28 -21 41 -3 18 24 15 34 -19 59 -41 30 -122 33 -177 4z"/>
<path d="M5420 1296 l0 -176 35 0 35 0 0 75 0 75 75 0 75 0 0 -75 0 -75 35 0
35 0 0 175 0 175 -35 0 -35 0 0 -70 0 -70 -75 0 -74 0 -3 68 -3 67 -32 3 -33
3 0 -175z"/>
<path d="M6307 1462 c-4 -5 -80 -193 -134 -330 -4 -10 4 -13 32 -10 34 3 40 7
50 38 7 19 15 34 18 33 4 -2 38 -3 76 -3 l70 0 12 -35 c12 -31 17 -35 50 -35
l37 0 -70 175 -70 175 -34 0 c-18 0 -35 -3 -37 -8z m83 -203 c0 -5 -22 -9 -50
-9 -27 0 -50 2 -50 5 0 2 8 26 18 52 11 26 22 57 26 68 6 16 12 8 32 -44 13
-35 24 -67 24 -72z"/>
<path d="M3660 1453 c0 -5 -2 -81 -3 -171 l-2 -162 38 0 37 0 0 70 0 70 65 0
65 0 0 30 0 30 -65 0 -65 0 0 35 c0 19 -1 38 -2 41 -2 4 31 7 72 8 74 1 75 1
78 29 l3 27 -110 0 c-61 0 -111 -3 -111 -7z"/>
<path d="M4190 1290 l0 -170 93 3 c95 4 149 21 161 52 15 39 6 83 -20 104 -26
21 -26 22 -9 41 20 22 22 68 5 100 -16 31 -51 40 -146 40 l-84 0 0 -170z m171
94 c21 -26 -2 -48 -55 -54 l-46 -6 0 38 0 38 44 0 c28 0 48 -6 57 -16z m9
-129 c7 -8 10 -25 6 -40 -6 -23 -11 -25 -61 -25 l-55 0 0 40 0 40 49 0 c31 0
53 -5 61 -15z"/>
<path d="M5870 1290 l0 -170 35 0 35 0 0 64 0 64 38 -5 c61 -8 114 16 136 60
24 50 15 98 -25 131 -28 24 -38 26 -125 26 l-94 0 0 -170z m174 94 c36 -36 -1
-84 -64 -84 l-40 0 0 50 0 50 44 0 c27 0 51 -6 60 -16z"/>
<path d="M6560 1435 c0 -27 4 -28 63 -25 l37 2 0 -146 0 -146 35 0 35 0 0 143
0 143 48 0 c44 -1 47 1 50 27 l3 27 -135 0 -136 0 0 -25z"/>
</g>
</svg>
